<?xml version="1.0" encoding="UTF-8" standalone="no"?>
<svg
   width="45mm"
   height="45mm"
   viewBox="0 0 45.000001 45"
   version="1.1"
   id="svg8"
   inkscape:version="1.2.1 (9c6d41e410, 2022-07-14)"
   sodipodi:docname="ns-usbloader.svg"
   xmlns:inkscape="http://www.inkscape.org/namespaces/inkscape"
   xmlns:sodipodi="http://sodipodi.sourceforge.net/DTD/sodipodi-0.dtd"
   xmlns="http://www.w3.org/2000/svg"
   xmlns:svg="http://www.w3.org/2000/svg"
   xmlns:rdf="http://www.w3.org/1999/02/22-rdf-syntax-ns#"
   xmlns:cc="http://creativecommons.org/ns#"
   xmlns:dc="http://purl.org/dc/elements/1.1/">
  <defs
     id="defs2" />
  <sodipodi:namedview
     id="base"
     pagecolor="#ffffff"
     bordercolor="#666666"
     borderopacity="1.0"
     inkscape:pageopacity="0.0"
     inkscape:pageshadow="2"
     inkscape:zoom="5.6568543"
     inkscape:cx="206.82873"
     inkscape:cy="90.421279"
     inkscape:document-units="mm"
     inkscape:current-layer="svg8"
     showgrid="false"
     units="mm"
     inkscape:window-width="3754"
     inkscape:window-height="2127"
     inkscape:window-x="1166"
     inkscape:window-y="0"
     inkscape:window-maximized="1"
     fit-margin-top="0"
     fit-margin-left="0"
     fit-margin-right="0"
     fit-margin-bottom="0"
     inkscape:document-rotation="0"
     inkscape:showpageshadow="0"
     inkscape:pagecheckerboard="0"
     inkscape:deskcolor="#d1d1d1">
    <inkscape:grid
       type="xygrid"
       id="grid829"
       originx="-40.993993"
       originy="-37.999754" />
  </sodipodi:namedview>
  <metadata
     id="metadata5">
    <rdf:RDF>
      <cc:Work
         rdf:about="">
        <dc:format>image/svg+xml</dc:format>
        <dc:type
           rdf:resource="http://purl.org/dc/dcmitype/StillImage" />
      </cc:Work>
    </rdf:RDF>
  </metadata>
  <g
     id="g851"
     inkscape:label="mainGRP"
     transform="translate(-40.993968,-26.999903)">
    <path
       id="path847"
       transform="scale(0.26458333)"
       d="m 188.97656,102.04688 c -18.97637,0 -34.01562,18.70089 -34.01562,30.23632 -0.0219,42.2441 -0.0386,69.16374 0,109.60742 0,11.85827 15.03925,30.23633 34.01562,30.23633 h 48.94141 V 102.04688 Z"
       style="fill:#00c8fc;fill-opacity:1;stroke-width:1"
       inkscape:connector-curvature="0"
       inkscape:label="con" />
    <path
       id="rect823"
       d="m 64.973294,26.999903 v 45 h 21.02 v -45 z"
       style="fill:#ec0000;fill-opacity:1;stroke-width:0.116442"
       inkscape:connector-curvature="0"
       inkscape:label="big" />
  </g>
  <path
     id="path862"
     style="fill:#ffffff;fill-opacity:1;stroke-width:0.392613"
     d="m 11.547015,28.4105 a 2.1593723,2.1593723 0 0 0 -2.2000565,2.117691 2.1593723,2.1593723 0 0 0 2.1176905,2.200059 2.1593723,2.1593723 0 0 0 2.200555,-2.1167 2.1593723,2.1593723 0 0 0 -2.1167,-2.20105 l -0.04267,2.158874 z m 3.840427,-3.937182 a 2.1593723,2.1593723 0 0 0 -2.199561,2.117693 2.1593723,2.1593723 0 0 0 2.117195,2.200057 2.1593723,2.1593723 0 0 0 2.200555,-2.117195 2.1593723,2.1593723 0 0 0 -2.1167,-2.200555 l -0.04217,2.158876 z m -7.6809635,0 a 2.1593722,2.1593722 0 0 0 -2.200057,2.117693 2.1593722,2.1593722 0 0 0 2.117691,2.200057 2.1593722,2.1593722 0 0 0 2.200554,-2.117195 2.1593722,2.1593722 0 0 0 -2.117195,-2.200555 l -0.04218,2.158876 z m 3.8405365,-3.938173 a 2.1593723,2.1593723 0 0 0 -2.2000565,2.117691 2.1593723,2.1593723 0 0 0 2.1176905,2.200059 2.1593723,2.1593723 0 0 0 2.200555,-2.1167 2.1593723,2.1593723 0 0 0 -2.1167,-2.20105 l -0.04267,2.158874 z"
     inkscape:label="small_c"
     inkscape:connector-curvature="0" />
  <g
     inkscape:label="slogan"
     id="layer1"
     transform="translate(-40.993968,-213.9999)"
     inkscape:groupmode="layer">
    <g
       aria-label="everywhere"
       transform="matrix(0.26458333,0,0,0.26458333,-24.077084,181.70833)"
       style="font-style:normal;font-variant:normal;font-weight:300;font-stretch:normal;font-size:35.0667px;line-height:1.25;font-family:Raleway;-inkscape-font-specification:'Raleway, Light';font-variant-ligatures:normal;font-variant-caps:normal;font-variant-numeric:normal;font-feature-settings:normal;text-align:start;letter-spacing:0px;word-spacing:0px;writing-mode:lr-tb;text-anchor:start;fill:#000000;fill-opacity:1;stroke:none"
       id="flowRoot1022"
       inkscape:label="flowRoot1022"
       inkscape:groupmode="layer" />
  </g>
  <path
     id="path853"
     style="fill:#ffffff;fill-opacity:1;stroke-width:0.272727"
     d="m 11.506852,6.300096 a 4.5000001,4.5000001 0 0 1 4.49918,4.500616 4.5000001,4.5000001 0 0 1 -4.500411,4.499384 4.5000001,4.5000001 0 0 1 -4.4995895,-4.500205 4.5000001,4.5000001 0 0 1 4.5000005,-4.499795"
     inkscape:label="big_c"
     inkscape:connector-curvature="0" />
  <path
     id="path1334"
     d="m 35.091899,7.050931 -1.966235,3.404775 h 1.402615 v 17.402765 l -3.579993,-3.388515 c -0.231149,-0.288377 -0.393301,-0.665687 -0.402284,-1.053816 0,-1.570143 -3.97e-4,-2.502567 -9.76e-4,-2.845788 0.662828,-0.232646 1.141253,-0.857572 1.141253,-1.600489 0,-0.939842 -0.76265,-1.702559 -1.702831,-1.702559 -0.940589,0 -1.702967,0.76265 -1.702967,1.702559 0,0.742917 0.478154,1.367843 1.140438,1.600489 l -4.76e-4,2.812447 c 0,0.762241 0.418205,1.560957 0.90847,2.069322 -0.01456,-0.01388 -0.03007,-0.02831 2.83e-4,8.15e-4 0.01211,0.01075 3.797875,3.595101 3.797875,3.595101 0.230809,0.287762 0.39194,0.664868 0.401196,1.052727 v 1.968677 c -1.30057,0.260954 -2.28042,1.409421 -2.28042,2.787065 0,1.570687 1.273194,2.843881 2.843405,2.843881 1.570686,0 2.843946,-1.273194 2.843946,-2.843881 0,-1.377917 -0.980663,-2.526381 -2.282303,-2.787335 v -1.934186 c 0,-0.005 2.59e-4,-0.0099 0,-0.01498 v -4.278078 c 0.0098,-0.38711 0.171203,-0.763741 0.402285,-1.051231 0,0 3.785488,-3.583532 3.797733,-3.594625 0.03043,-0.02872 0.01454,-0.01444 2.59e-4,-2.58e-4 0.490197,-0.508364 0.908134,-1.307418 0.908134,-2.069798 l -3.97e-4,-2.710376 h 1.141588 v -3.405646 h -3.405338 v 3.405663 h 1.140097 c 0,0 -0.0012,0.713861 -0.0012,2.743583 -0.0089,0.388196 -0.170862,0.765917 -0.402012,1.054155 l -3.580815,3.389238 V 10.455706 h 1.404858 z"
     inkscape:connector-curvature="0"
     style="fill:#ffffff;stroke-width:0.0680452"
     inkscape:label="usb_logo" />
  <path
     style="fill:#000000;fill-opacity:1;stroke-width:0.264583"
     d="m 21.967046,0 c -0.0065,-1.9994448e-6 -0.01188,0.0054 -0.01188,0.01188 v 44.976581 c 0,0.0065 0.0054,0.01188 0.01188,0.01188 h 2.000395 c 0.0065,0 0.01188,-0.0054 0.01188,-0.01188 V 0.011885 c 0,-0.0065 -0.0054,-0.011879999445 -0.01188,-0.011879999445 z"
     id="rect1136"
     inkscape:connector-curvature="0"
     sodipodi:nodetypes="csssssssc" />
</svg>
