<?xml version="1.0" encoding="UTF-8" standalone="no"?>
<svg
   xmlns:dc="http://purl.org/dc/elements/1.1/"
   xmlns:cc="http://creativecommons.org/ns#"
   xmlns:rdf="http://www.w3.org/1999/02/22-rdf-syntax-ns#"
   xmlns:svg="http://www.w3.org/2000/svg"
   xmlns="http://www.w3.org/2000/svg"
   xmlns:sodipodi="http://sodipodi.sourceforge.net/DTD/sodipodi-0.dtd"
   xmlns:inkscape="http://www.inkscape.org/namespaces/inkscape"
   width="132.50603mm"
   height="58.000351mm"
   viewBox="0 0 132.50603 58.000351"
   version="1.1"
   id="svg8"
   inkscape:version="1.0 (4035a4fb49, 2020-05-01)"
   sodipodi:docname="Application Logo.svg">
  <defs
     id="defs2" />
  <sodipodi:namedview
     id="base"
     pagecolor="#ffffff"
     bordercolor="#666666"
     borderopacity="1.0"
     inkscape:pageopacity="0.0"
     inkscape:pageshadow="2"
     inkscape:zoom="1.4142136"
     inkscape:cx="383.67648"
     inkscape:cy="100.29922"
     inkscape:document-units="mm"
     inkscape:current-layer="svg8"
     showgrid="false"
     units="mm"
     inkscape:window-width="1860"
     inkscape:window-height="1058"
     inkscape:window-x="1980"
     inkscape:window-y="0"
     inkscape:window-maximized="1"
     fit-margin-top="0"
     fit-margin-left="0"
     fit-margin-right="0"
     fit-margin-bottom="0"
     inkscape:document-rotation="0">
    <inkscape:grid
       type="xygrid"
       id="grid829"
       originx="-40.993969"
       originy="-37.999746" />
  </sodipodi:namedview>
  <metadata
     id="metadata5">
    <rdf:RDF>
      <cc:Work
         rdf:about="">
        <dc:format>image/svg+xml</dc:format>
        <dc:type
           rdf:resource="http://purl.org/dc/dcmitype/StillImage" />
        <dc:title></dc:title>
      </cc:Work>
    </rdf:RDF>
  </metadata>
  <g
     id="g851"
     inkscape:label="mainGRP"
     transform="translate(-40.993968,-26.999903)">
    <path
       id="path847"
       transform="scale(0.26458333)"
       d="m 188.97656,102.04688 c -18.97637,0 -34.01562,18.70089 -34.01562,30.23632 -0.0219,42.2441 -0.0386,69.16374 0,109.60742 0,11.85827 15.03925,30.23633 34.01562,30.23633 h 48.94141 V 102.04688 Z"
       style="fill:#00c8fc;fill-opacity:1;stroke-width:1"
       inkscape:connector-curvature="0"
       inkscape:label="con" />
    <path
       id="rect823"
       transform="scale(0.26458333)"
       d="M 245.56836,102.04688 V 272.12695 H 655.74805 V 102.04688 Z"
       style="fill:#ec0000;fill-opacity:1;stroke-width:1"
       inkscape:connector-curvature="0"
       inkscape:label="big" />
  </g>
  <path
     id="path862"
     style="fill:#ffffff;fill-opacity:1;stroke-width:0.392613"
     d="m 11.547015,28.4105 a 2.1593723,2.1593723 0 0 0 -2.2000565,2.117691 2.1593723,2.1593723 0 0 0 2.1176905,2.200059 2.1593723,2.1593723 0 0 0 2.200555,-2.1167 2.1593723,2.1593723 0 0 0 -2.1167,-2.20105 l -0.04267,2.158874 z m 3.840427,-3.937182 a 2.1593723,2.1593723 0 0 0 -2.199561,2.117693 2.1593723,2.1593723 0 0 0 2.117195,2.200057 2.1593723,2.1593723 0 0 0 2.200555,-2.117195 2.1593723,2.1593723 0 0 0 -2.1167,-2.200555 l -0.04217,2.158876 z m -7.6809635,0 a 2.1593722,2.1593722 0 0 0 -2.200057,2.117693 2.1593722,2.1593722 0 0 0 2.117691,2.200057 2.1593722,2.1593722 0 0 0 2.200554,-2.117195 2.1593722,2.1593722 0 0 0 -2.117195,-2.200555 l -0.04218,2.158876 z m 3.8405365,-3.938173 a 2.1593723,2.1593723 0 0 0 -2.2000565,2.117691 2.1593723,2.1593723 0 0 0 2.1176905,2.200059 2.1593723,2.1593723 0 0 0 2.200555,-2.1167 2.1593723,2.1593723 0 0 0 -2.1167,-2.20105 l -0.04267,2.158874 z"
     inkscape:label="small_c"
     inkscape:connector-curvature="0" />
  <g
     inkscape:label="slogan"
     id="layer1"
     transform="translate(-40.993968,-213.9999)"
     inkscape:groupmode="layer">
    <g
       aria-label="everywhere"
       transform="matrix(0.26458333,0,0,0.26458333,-24.077084,181.70833)"
       style="font-style:normal;font-variant:normal;font-weight:300;font-stretch:normal;font-size:35.0667px;line-height:1.25;font-family:Raleway;-inkscape-font-specification:'Raleway, Light';font-variant-ligatures:normal;font-variant-caps:normal;font-variant-numeric:normal;font-feature-settings:normal;text-align:start;letter-spacing:0px;word-spacing:0px;writing-mode:lr-tb;text-anchor:start;fill:#000000;fill-opacity:1;stroke:none"
       id="flowRoot1022"
       inkscape:label="flowRoot1022"
       inkscape:groupmode="layer">
      <path
         id="path1096"
         d="m 482.38477,208.55274 v 3.22657 h 1.7539 v -3.22657 z m 60.89062,0 v 22.51368 c 0,1.00524 0.29251,1.81209 0.87695,2.41992 0.60782,0.58444 1.4029,0.87695 2.38477,0.87695 0.4208,0 0.92337,-0.0589 1.50781,-0.17578 0.58444,-0.0935 1.07523,-0.22307 1.47266,-0.38672 l -0.35156,-1.40234 c -0.30392,0.11691 -0.64354,0.21114 -1.01758,0.28125 -0.35067,0.0468 -0.65301,0.0703 -0.91016,0.0703 -0.67795,0 -1.21586,-0.19828 -1.61328,-0.5957 -0.37405,-0.39743 -0.56055,-0.93533 -0.56055,-1.61328 v -21.98829 z m 94.92383,0 v 25.59961 h 1.75195 v -5.78515 l 4.31445,-3.96289 7.11719,9.74804 h 1.92969 l -7.85547,-10.80078 7.60938,-7.39844 h -2.03321 l -11.08203,10.48438 v -17.88477 z m -166.73633,7.04883 c -0.91173,0 -1.77748,0.11779 -2.5957,0.35156 -0.79485,0.21041 -1.50747,0.53629 -2.13867,0.98047 -0.60782,0.44418 -1.08683,1.00564 -1.4375,1.6836 -0.35067,0.67796 -0.5254,1.47303 -0.5254,2.38476 0,0.72471 0.11583,1.32151 0.34961,1.78907 0.25716,0.46754 0.63212,0.8641 1.12305,1.1914 0.49093,0.32729 1.10933,0.60803 1.85742,0.8418 0.77147,0.23377 1.67256,0.46738 2.70118,0.70117 0.95849,0.23377 1.79872,0.45561 2.52343,0.66602 0.72471,0.21039 1.33328,0.45579 1.82422,0.73632 0.49093,0.25716 0.85411,0.58501 1.08789,0.98243 0.25716,0.37404 0.38477,0.84127 0.38477,1.40234 0,1.19227 -0.4908,2.12869 -1.47266,2.80664 -0.95849,0.65458 -2.23257,0.98047 -3.82226,0.98047 -1.2624,0 -2.42067,-0.21005 -3.47266,-0.63086 -1.052,-0.4208 -2.06891,-1.07454 -3.05078,-1.96289 l -0.875,1.19141 c 0.95848,0.93511 2.07945,1.63596 3.36523,2.10351 1.28578,0.46755 2.63054,0.70117 4.03321,0.70117 2.12738,0 3.82158,-0.47901 5.08398,-1.4375 1.28578,-0.98186 1.92969,-2.28933 1.92969,-3.92578 0,-0.79484 -0.1649,-1.45054 -0.49219,-1.96484 -0.30392,-0.51432 -0.75937,-0.95799 -1.36719,-1.33203 -0.58444,-0.37404 -1.32062,-0.69012 -2.20898,-0.94727 -0.88835,-0.25715 -1.90527,-0.5261 -3.05078,-0.80664 -0.84161,-0.2104 -1.56601,-0.3969 -2.17383,-0.56055 -0.60783,-0.18702 -1.11039,-0.39708 -1.50781,-0.63086 -0.37405,-0.23378 -0.65478,-0.5145 -0.8418,-0.84179 -0.16365,-0.32729 -0.24609,-0.76114 -0.24609,-1.29883 0,-0.65457 0.12955,-1.21409 0.38671,-1.68164 0.25716,-0.49093 0.60661,-0.88945 1.05079,-1.19336 0.44418,-0.30391 0.95852,-0.52575 1.54296,-0.66602 0.60782,-0.14027 1.25173,-0.21093 1.92969,-0.21093 1.09876,0 2.12745,0.17667 3.08594,0.52734 0.98187,0.35067 1.77695,0.87679 2.38476,1.57813 l 0.98047,-0.94727 c -0.60782,-0.74809 -1.45984,-1.35667 -2.55859,-1.82422 -1.09876,-0.49093 -2.36107,-0.73633 -3.78711,-0.73633 z m 26.80859,0 c -1.4728,0 -2.81755,0.41029 -4.0332,1.22852 -1.21565,0.81821 -2.19722,1.96275 -2.94531,3.43554 v -4.34765 h -1.64844 v 18.23437 h 1.75391 v -11.29101 c 0.23378,-0.8416 0.55967,-1.60135 0.98047,-2.2793 0.44417,-0.70133 0.94674,-1.29812 1.50781,-1.78906 0.56106,-0.51431 1.16964,-0.8991 1.82422,-1.15625 0.67796,-0.28053 1.39058,-0.42188 2.13867,-0.42188 1.47279,0 2.56038,0.54969 3.26172,1.64844 0.70133,1.07538 1.05273,2.78136 1.05273,5.11914 v 10.16992 h 1.75196 v -11.25586 c 0.23377,-0.8416 0.54984,-1.60133 0.94726,-2.27929 0.4208,-0.70133 0.91159,-1.29813 1.47266,-1.78907 0.56106,-0.51431 1.18141,-0.91087 1.85937,-1.1914 0.67796,-0.28053 1.39059,-0.42188 2.13867,-0.42188 1.4728,0 2.56039,0.54969 3.26172,1.64844 0.72472,1.09875 1.08594,2.80474 1.08594,5.11914 v 10.16992 h 1.75391 v -10.48437 c 0,-2.54818 -0.4319,-4.52508 -1.29688,-5.92774 -0.8416,-1.42604 -2.25703,-2.13867 -4.24414,-2.13867 -3.03911,0 -5.42239,1.64905 -7.15234,4.94532 -0.18703,-1.4728 -0.76027,-2.66639 -1.71875,-3.57813 -0.95849,-0.91173 -2.20902,-1.36719 -3.75196,-1.36719 z m 31.94727,0 c -1.40267,0 -2.72387,0.37496 -3.96289,1.12305 -1.21565,0.72471 -2.19722,1.67095 -2.94531,2.83984 v -3.64648 h -1.61328 v 25.70312 h 1.7539 v -11.39648 c 0.7481,1.19227 1.72967,2.20918 2.94531,3.05078 1.23902,0.81822 2.64268,1.22656 4.20899,1.22656 1.23903,0 2.37177,-0.24539 3.40039,-0.73633 1.02862,-0.51431 1.90615,-1.20338 2.63086,-2.06835 0.74809,-0.86498 1.31937,-1.87012 1.7168,-3.01563 0.39742,-1.14551 0.59765,-2.34893 0.59765,-3.61133 0,-1.19226 -0.22379,-2.3623 -0.66797,-3.50781 -0.4208,-1.14551 -1.01564,-2.15065 -1.78711,-3.01562 -0.77146,-0.88836 -1.6961,-1.60098 -2.77148,-2.13868 -1.07537,-0.53768 -2.24346,-0.80664 -3.50586,-0.80664 z m 82.88672,0 c -1.2624,0 -2.44422,0.25717 -3.54297,0.77149 -1.07538,0.49092 -2.00985,1.17017 -2.80469,2.03515 -0.79484,0.86498 -1.42698,1.87011 -1.89453,3.01563 -0.44418,1.14551 -0.66601,2.3607 -0.66601,3.64648 0,1.2624 0.22183,2.46582 0.66601,3.61133 0.44417,1.14551 1.06453,2.15065 1.85938,3.01563 0.79484,0.86497 1.7293,1.55404 2.80468,2.06835 1.09875,0.49094 2.29235,0.73633 3.57813,0.73633 1.26241,0 2.43048,-0.24539 3.50586,-0.73633 1.09876,-0.51431 2.045,-1.20338 2.83984,-2.06835 0.79484,-0.86498 1.4152,-1.87012 1.85938,-3.01563 0.46756,-1.14551 0.70117,-2.34893 0.70117,-3.61133 0,-1.28578 -0.23361,-2.50097 -0.70117,-3.64648 -0.44418,-1.14552 -1.07631,-2.15065 -1.89453,-3.01563 -0.79484,-0.86498 -1.72931,-1.54423 -2.80469,-2.03515 -1.07538,-0.51432 -2.24345,-0.77149 -3.50586,-0.77149 z m 49.30664,0 c -0.91174,0 -1.77749,0.11779 -2.5957,0.35156 -0.79485,0.21041 -1.50748,0.53629 -2.13868,0.98047 -0.60782,0.44418 -1.08683,1.00564 -1.4375,1.6836 -0.35066,0.67796 -0.52734,1.47303 -0.52734,2.38476 0,0.72471 0.11778,1.32151 0.35156,1.78907 0.25716,0.46754 0.63016,0.8641 1.1211,1.1914 0.49092,0.32729 1.11128,0.60803 1.85937,0.8418 0.77147,0.23377 1.6706,0.46738 2.69922,0.70117 0.95849,0.23377 1.80068,0.45561 2.52539,0.66602 0.72471,0.21039 1.33329,0.45579 1.82422,0.73632 0.49094,0.25716 0.85216,0.58501 1.08594,0.98243 0.25716,0.37404 0.38672,0.84127 0.38672,1.40234 0,1.19227 -0.49079,2.12869 -1.47266,2.80664 -0.95848,0.65458 -2.23257,0.98047 -3.82227,0.98047 -1.2624,0 -2.42065,-0.21005 -3.47265,-0.63086 -1.052,-0.4208 -2.06892,-1.07454 -3.05078,-1.96289 l -0.87696,1.19141 c 0.95849,0.93511 2.08141,1.63596 3.36719,2.10351 1.28577,0.46755 2.63054,0.70117 4.0332,0.70117 2.12738,0 3.82158,-0.47901 5.08399,-1.4375 1.28577,-0.98186 1.92969,-2.28933 1.92969,-3.92578 0,-0.79484 -0.1649,-1.45054 -0.49219,-1.96484 -0.30391,-0.51432 -0.75937,-0.95799 -1.36719,-1.33203 -0.58445,-0.37404 -1.32063,-0.69012 -2.20898,-0.94727 -0.88836,-0.25715 -1.90528,-0.5261 -3.05078,-0.80664 -0.8416,-0.2104 -1.56601,-0.3969 -2.17383,-0.56055 -0.60782,-0.18702 -1.1104,-0.39708 -1.50781,-0.63086 -0.37405,-0.23378 -0.65478,-0.5145 -0.8418,-0.84179 -0.16365,-0.32729 -0.2461,-0.76114 -0.2461,-1.29883 0,-0.65457 0.12957,-1.21409 0.38672,-1.68164 0.25716,-0.49093 0.60661,-0.88945 1.05078,-1.19336 0.44418,-0.30391 0.95853,-0.52575 1.54297,-0.66602 0.60782,-0.14027 1.25173,-0.21093 1.92969,-0.21093 1.09875,0 2.12744,0.17667 3.08594,0.52734 0.98186,0.35067 1.77694,0.87679 2.38476,1.57813 l 0.98047,-0.94727 c -0.60782,-0.74809 -1.45984,-1.35667 -2.55859,-1.82422 -1.09876,-0.49093 -2.36107,-0.73633 -3.78711,-0.73633 z m -28.0293,0.2461 c -0.18702,0 -0.39708,0.0118 -0.63086,0.0351 -1.19226,0.11689 -2.31518,0.58412 -3.36718,1.40235 -1.02863,0.79484 -1.85709,1.83532 -2.48829,3.12109 v -4.48828 h -1.68359 v 18.23437 h 1.75391 v -11.39648 c 0.49093,-1.61307 1.34295,-2.87538 2.55859,-3.78711 1.23903,-0.93507 2.67801,-1.42586 4.31445,-1.47266 v -1.64843 z m -151.99804,0.0703 v 18.23437 h 1.7539 v -18.23437 z m 67.30859,0 8.13672,18.23437 c -0.56107,1.33254 -1.0067,2.38479 -1.33399,3.15625 -0.32728,0.77147 -0.59623,1.35648 -0.80664,1.75391 -0.2104,0.39742 -0.37334,0.65459 -0.49023,0.77148 -0.11689,0.14029 -0.24451,0.24435 -0.38477,0.31446 -0.18702,0.0935 -0.38725,0.15238 -0.59765,0.17578 -0.18703,0.0234 -0.39709,0.0352 -0.63086,0.0352 -0.23378,0 -0.4085,-0.0118 -0.52539,-0.0352 v 1.61328 c 0.11689,0.0234 0.22094,0.0352 0.31445,0.0352 h 0.31641 c 0.98186,0 1.75338,-0.18846 2.31445,-0.5625 0.58444,-0.35067 1.00456,-0.85324 1.26172,-1.50782 l 9.99414,-23.98437 h -1.7168 l -6.76953,16.51562 -7.25781,-16.51562 z m 26.09766,0 7.88867,18.23437 h 1.47265 l 4.10352,-9.64257 4.10352,9.64257 h 1.47265 l 7.88867,-18.23437 h -1.75195 l -6.94336,16.30469 -3.82227,-8.97657 3.08594,-7.29297 h -1.54297 l -2.49023,6.03126 -2.52539,-6.03126 h -1.50781 l 3.08593,7.29297 -3.82226,8.97657 -6.97852,-16.30469 z m -45.92383,1.26172 c 1.00524,0 1.95344,0.22183 2.84179,0.66601 0.88836,0.4208 1.65988,0.99404 2.31446,1.71875 0.67796,0.72471 1.20408,1.56691 1.57812,2.52539 0.37405,0.93511 0.56055,1.92847 0.56055,2.98047 0,0.98187 -0.16295,1.95167 -0.49023,2.91016 -0.3273,0.93511 -0.79648,1.7773 -1.4043,2.52539 -0.60782,0.72471 -1.34401,1.30777 -2.20899,1.75195 -0.86497,0.44418 -1.823,0.66797 -2.875,0.66797 -0.72471,0 -1.42556,-0.11779 -2.10351,-0.35156 -0.67796,-0.25715 -1.31008,-0.60856 -1.89453,-1.05274 -0.58444,-0.44418 -1.11057,-0.95852 -1.57813,-1.54296 -0.46755,-0.58446 -0.85233,-1.21463 -1.15625,-1.89258 v -5.9961 c 0.0701,-0.65457 0.32731,-1.27492 0.77149,-1.85937 0.44417,-0.58444 0.98207,-1.09879 1.61328,-1.54297 0.6312,-0.46755 1.29671,-0.82878 1.99804,-1.08594 0.72471,-0.28053 1.40201,-0.42187 2.03321,-0.42187 z m 83.23828,0 c 0.98187,0 1.89277,0.21006 2.73437,0.63086 0.86498,0.4208 1.62472,0.99403 2.2793,1.71875 0.65457,0.70133 1.16892,1.53174 1.54297,2.49023 0.37405,0.93511 0.56055,1.94025 0.56055,3.01563 0,1.09875 -0.1865,2.12745 -0.56055,3.08593 -0.37405,0.93512 -0.8884,1.76552 -1.54297,2.49024 -0.65458,0.7247 -1.41432,1.296 -2.2793,1.71679 -0.86498,0.39742 -1.78767,0.59766 -2.76953,0.59766 -0.98186,0 -1.9065,-0.20024 -2.77148,-0.59766 -0.86498,-0.42079 -1.62472,-0.9803 -2.2793,-1.68164 -0.63119,-0.70132 -1.13376,-1.51996 -1.50781,-2.45507 -0.37405,-0.95849 -0.56055,-1.97541 -0.56055,-3.05079 0,-1.07538 0.1865,-2.09229 0.56055,-3.05078 0.39742,-0.98186 0.91177,-1.83584 1.54297,-2.56054 0.65458,-0.72472 1.41431,-1.29795 2.27929,-1.71875 0.86498,-0.4208 1.78963,-0.63086 2.77149,-0.63086 z m -21.5957,22.91406 v 25.59961 h 1.7539 v -11.29102 c 0.23378,-0.79484 0.58518,-1.53102 1.05274,-2.20898 0.46755,-0.70133 1.0035,-1.30991 1.61132,-1.82422 0.6312,-0.51431 1.29867,-0.91087 2,-1.19141 0.72472,-0.28053 1.4609,-0.42187 2.20899,-0.42187 3.01573,0 4.52344,2.25566 4.52344,6.76758 v 10.16992 h 1.7539 v -10.48438 c 0,-1.23902 -0.11779,-2.35016 -0.35156,-3.33203 -0.2104,-1.00524 -0.55985,-1.85921 -1.05078,-2.56054 -0.46756,-0.70134 -1.06436,-1.23729 -1.78906,-1.61133 -0.72472,-0.37405 -1.59046,-0.5625 -2.59571,-0.5625 -1.51955,0 -2.94481,0.42207 -4.27734,1.26367 -1.30915,0.8416 -2.33785,1.97434 -3.08594,3.40039 v -11.71289 z m -109.88282,7.04883 c -1.2624,0 -2.44421,0.24539 -3.54297,0.73633 -1.07538,0.49093 -2.00984,1.17017 -2.80468,2.03515 -0.79485,0.8416 -1.42503,1.83496 -1.89258,2.98047 -0.44418,1.12213 -0.66602,2.32556 -0.66602,3.61133 0,1.30915 0.22184,2.53613 0.66602,3.68164 0.46755,1.14551 1.09773,2.16243 1.89258,3.05078 0.81822,0.86498 1.77624,1.55405 2.875,2.06836 1.09876,0.49093 2.29235,0.73828 3.57812,0.73828 0.8416,0 1.65828,-0.11779 2.45313,-0.35156 0.79484,-0.2104 1.5212,-0.51468 2.17578,-0.91211 0.67796,-0.39742 1.26102,-0.86466 1.75195,-1.40234 0.51431,-0.56107 0.90104,-1.16964 1.1582,-1.82422 l -1.54296,-0.41992 c -0.23378,0.51431 -0.56163,0.99332 -0.98243,1.4375 -0.39742,0.4208 -0.86465,0.78397 -1.40234,1.08789 -0.51431,0.30391 -1.07577,0.5493 -1.68359,0.73632 -0.60782,0.16365 -1.22623,0.24415 -1.85743,0.24414 -0.95849,0 -1.85957,-0.1865 -2.70117,-0.56054 -0.8416,-0.37405 -1.58956,-0.8884 -2.24414,-1.54297 -0.6312,-0.65458 -1.15732,-1.4261 -1.57812,-2.31445 -0.4208,-0.91174 -0.6662,-1.89332 -0.73633,-2.94532 h 15.99023 c 0.0234,-0.0467 0.0352,-0.15276 0.0352,-0.3164 v -0.45508 c 0,-1.2624 -0.22184,-2.45404 -0.66602,-3.57617 -0.44418,-1.14551 -1.06452,-2.13887 -1.85937,-2.98047 -0.79484,-0.86498 -1.74109,-1.54422 -2.83985,-2.03516 -1.09875,-0.51431 -2.29039,-0.77148 -3.57617,-0.77148 z m 37.875,0 c -1.2624,0 -2.44421,0.24539 -3.54297,0.73633 -1.07538,0.49093 -2.00984,1.17017 -2.80468,2.03515 -0.79485,0.8416 -1.42503,1.83496 -1.89258,2.98047 -0.44418,1.12213 -0.66797,2.32556 -0.66797,3.61133 0,1.30915 0.22379,2.53613 0.66797,3.68164 0.46755,1.14551 1.09773,2.16243 1.89258,3.05078 0.81822,0.86498 1.77624,1.55405 2.875,2.06836 1.09876,0.49093 2.29235,0.73828 3.57812,0.73828 0.8416,0 1.65828,-0.11779 2.45313,-0.35156 0.79484,-0.2104 1.5212,-0.51468 2.17578,-0.91211 0.67796,-0.39742 1.26102,-0.86466 1.75195,-1.40234 0.51431,-0.56107 0.90104,-1.16964 1.1582,-1.82422 l -1.54296,-0.41992 c -0.23378,0.51431 -0.56163,0.99332 -0.98243,1.4375 -0.39742,0.4208 -0.86465,0.78397 -1.40234,1.08789 -0.51431,0.30391 -1.07577,0.5493 -1.68359,0.73632 -0.60782,0.16365 -1.22818,0.24415 -1.85938,0.24414 -0.95849,0 -1.85762,-0.1865 -2.69922,-0.56054 -0.8416,-0.37405 -1.58956,-0.8884 -2.24414,-1.54297 -0.6312,-0.65458 -1.15732,-1.4261 -1.57812,-2.31445 -0.4208,-0.91174 -0.6662,-1.89332 -0.73633,-2.94532 h 15.99023 c 0.0234,-0.0467 0.0352,-0.15276 0.0352,-0.3164 v -0.45508 c 0,-1.2624 -0.22184,-2.45404 -0.66602,-3.57617 -0.44418,-1.14551 -1.06452,-2.13887 -1.85937,-2.98047 -0.79484,-0.86498 -1.74109,-1.54422 -2.83985,-2.03516 -1.09875,-0.51431 -2.29039,-0.77148 -3.57617,-0.77148 z m 99.85743,0 c -1.2624,0 -2.44226,0.24539 -3.54102,0.73633 -1.07537,0.49093 -2.01179,1.17017 -2.80664,2.03515 -0.79485,0.8416 -1.42503,1.83496 -1.89258,2.98047 -0.44418,1.12213 -0.66601,2.32556 -0.66602,3.61133 10e-6,1.30915 0.22184,2.53613 0.66602,3.68164 0.46755,1.14551 1.09773,2.16243 1.89258,3.05078 0.81822,0.86498 1.77624,1.55405 2.875,2.06836 1.09875,0.49093 2.29234,0.73828 3.57812,0.73828 0.8416,0 1.66024,-0.11779 2.45508,-0.35156 0.79485,-0.2104 1.51925,-0.51468 2.17383,-0.91211 0.67795,-0.39742 1.26102,-0.86466 1.75195,-1.40234 0.51432,-0.56107 0.90105,-1.16964 1.15821,-1.82422 l -1.54297,-0.41992 c -0.23378,0.51431 -0.56162,0.99332 -0.98242,1.4375 -0.39742,0.4208 -0.86465,0.78397 -1.40235,1.08789 -0.5143,0.30391 -1.07577,0.5493 -1.68359,0.73632 -0.60782,0.16365 -1.22622,0.24414 -1.85742,0.24414 -0.95849,10e-6 -1.85958,-0.1865 -2.70118,-0.56054 -0.8416,-0.37405 -1.58956,-0.8884 -2.24414,-1.54297 -0.6312,-0.65458 -1.15732,-1.4261 -1.57812,-2.31445 -0.4208,-0.91174 -0.6662,-1.89332 -0.73633,-2.94532 h 15.99023 c 0.0234,-0.0467 0.0352,-0.15276 0.0352,-0.3164 v -0.45508 c 0,-1.2624 -0.22183,-2.45404 -0.66601,-3.57617 -0.44418,-1.14551 -1.06259,-2.13887 -1.85743,-2.98047 -0.79484,-0.86498 -1.74304,-1.54422 -2.84179,-2.03516 -1.09876,-0.51431 -2.2904,-0.77148 -3.57617,-0.77148 z m 31.57421,0 c -1.2624,0 -2.44421,0.24539 -3.54297,0.73633 -1.07537,0.49093 -2.00984,1.17017 -2.80468,2.03515 -0.79485,0.8416 -1.42698,1.83496 -1.89453,2.98047 -0.44418,1.12213 -0.66602,2.32556 -0.66602,3.61133 0,1.30915 0.22184,2.53613 0.66602,3.68164 0.46755,1.14551 1.09968,2.16243 1.89453,3.05078 0.81822,0.86498 1.77624,1.55405 2.875,2.06836 1.09875,0.49093 2.29234,0.73828 3.57812,0.73828 0.8416,0 1.65829,-0.11779 2.45313,-0.35156 0.79484,-0.2104 1.51925,-0.51468 2.17383,-0.91211 0.67795,-0.39742 1.26297,-0.86466 1.7539,-1.40234 0.51432,-0.56107 0.90105,-1.16964 1.1582,-1.82422 l -1.54296,-0.41992 c -0.23378,0.51431 -0.56163,0.99332 -0.98243,1.4375 -0.39742,0.4208 -0.86465,0.78397 -1.40234,1.08789 -0.51431,0.30391 -1.07577,0.5493 -1.68359,0.73632 -0.60782,0.16365 -1.22818,0.24414 -1.85938,0.24414 -0.95848,10e-6 -1.85762,-0.1865 -2.69922,-0.56054 -0.8416,-0.37405 -1.58956,-0.8884 -2.24414,-1.54297 -0.6312,-0.65458 -1.15732,-1.4261 -1.57812,-2.31445 -0.4208,-0.91174 -0.6662,-1.89332 -0.73633,-2.94532 h 15.99023 c 0.0234,-0.0467 0.0352,-0.15276 0.0352,-0.3164 v -0.45508 c 0,-1.2624 -0.22184,-2.45404 -0.66602,-3.57617 -0.44418,-1.14551 -1.06453,-2.13887 -1.85937,-2.98047 -0.79485,-0.86498 -1.74109,-1.54422 -2.83984,-2.03516 -1.09876,-0.51431 -2.2904,-0.77148 -3.57618,-0.77148 z m -110.42773,0.24609 c -0.18703,0 -0.39709,0.0118 -0.63086,0.0352 -1.19227,0.11688 -2.31519,0.58412 -3.36719,1.40234 -1.02862,0.79485 -1.85903,1.83532 -2.49023,3.1211 v -4.48829 h -1.68164 v 18.23438 h 1.75195 v -11.39648 c 0.49093,-1.61307 1.34491,-2.87538 2.56055,-3.78711 1.23902,-0.93514 2.67606,-1.42593 4.3125,-1.47266 v -1.64844 z m 99.85742,0 c -0.18702,0 -0.39708,0.0118 -0.63086,0.0352 -1.19226,0.11688 -2.31519,0.58412 -3.36719,1.40234 -1.02862,0.79485 -1.85708,1.83532 -2.48828,3.1211 v -4.48829 h -1.68359 v 18.23438 h 1.75391 v -11.39648 c 0.49093,-1.61307 1.34294,-2.87538 2.55859,-3.78711 1.23902,-0.93514 2.67801,-1.42593 4.31445,-1.47266 v -1.64844 z m -148.38086,0.0703 7.60938,18.23438 h 1.82422 l 7.60937,-18.23438 h -1.71875 l -6.76758,16.48047 -6.73242,-16.48047 z m 50.19922,0 8.13477,18.23438 c -0.56107,1.33253 -1.00474,2.38478 -1.33203,3.15625 -0.32729,0.77147 -0.59625,1.35649 -0.80665,1.75391 -0.2104,0.39742 -0.37334,0.65459 -0.49023,0.77148 -0.11689,0.14027 -0.24645,0.24432 -0.38672,0.31445 -0.18703,0.0935 -0.3853,0.15238 -0.5957,0.17578 -0.18702,0.0234 -0.39708,0.0352 -0.63086,0.0352 -0.23377,0 -0.4085,-0.0118 -0.52539,-0.0352 v 1.61329 c 0.11689,0.0234 0.22094,0.0351 0.31445,0.0351 h 0.31641 c 0.98186,0 1.75338,-0.18651 2.31445,-0.56055 0.58445,-0.35066 1.00457,-0.85518 1.26172,-1.50976 L 559.75,247.45899 h -1.71875 l -6.76758,16.51563 -7.25781,-16.51563 z m 18.97266,0 7.89062,18.23438 h 1.47266 l 4.10351,-9.64258 4.10157,9.64258 h 1.47461 l 7.88867,-18.23438 h -1.75391 l -6.94141,16.30664 -3.82226,-8.97851 3.08594,-7.29297 h -1.54297 l -2.49024,6.03125 -2.52539,-6.03125 h -1.50781 l 3.08594,7.29297 -3.82227,8.97851 -6.97851,-16.30664 z m -79.49219,1.1211 c 0.95849,0 1.85762,0.18846 2.69922,0.5625 0.8416,0.35066 1.57778,0.85323 2.20898,1.50781 0.65458,0.6312 1.18071,1.39094 1.57813,2.2793 0.4208,0.88836 0.66619,1.86994 0.73633,2.94531 h -14.37696 c 0.0701,-1.052 0.29197,-2.0218 0.66602,-2.91016 0.39742,-0.91173 0.91177,-1.68325 1.54297,-2.31445 0.65458,-0.65458 1.40254,-1.15715 2.24414,-1.50781 0.8416,-0.37404 1.74268,-0.5625 2.70117,-0.5625 z m 37.875,0 c 0.95849,0 1.85762,0.18846 2.69922,0.5625 0.8416,0.35066 1.57778,0.85323 2.20898,1.50781 0.65458,0.6312 1.18071,1.39094 1.57813,2.2793 0.4208,0.88836 0.66619,1.86994 0.73633,2.94531 h -14.37696 c 0.0701,-1.052 0.29197,-2.0218 0.66602,-2.91016 0.39742,-0.91173 0.91177,-1.68325 1.54297,-2.31445 0.65458,-0.65458 1.40254,-1.15715 2.24414,-1.50781 0.8416,-0.37404 1.74268,-0.5625 2.70117,-0.5625 z m 99.85742,0 c 0.95849,0 1.85762,0.18846 2.69922,0.5625 0.8416,0.35066 1.57778,0.85323 2.20898,1.50781 0.65458,0.6312 1.1807,1.39094 1.57813,2.2793 0.4208,0.88836 0.66619,1.86994 0.73633,2.94531 h -14.37696 c 0.0701,-1.052 0.29197,-2.0218 0.66602,-2.91016 0.39742,-0.91173 0.91177,-1.68325 1.54297,-2.31445 0.65458,-0.65458 1.40254,-1.15715 2.24414,-1.50781 0.8416,-0.37404 1.74268,-0.5625 2.70117,-0.5625 z m 31.57422,0 c 0.95849,0 1.85762,0.18846 2.69922,0.5625 0.8416,0.35066 1.57778,0.85323 2.20898,1.50781 0.65458,0.6312 1.1807,1.39094 1.57813,2.2793 0.4208,0.88836 0.66619,1.86994 0.73633,2.94531 h -14.37696 c 0.0701,-1.052 0.29197,-2.0218 0.66602,-2.91016 0.39742,-0.91173 0.91177,-1.68325 1.54297,-2.31445 0.65458,-0.65458 1.40254,-1.15715 2.24414,-1.50781 0.8416,-0.37404 1.74268,-0.5625 2.70117,-0.5625 z"
         inkscape:connector-curvature="0"
         style="fill:#ffffff" />
    </g>
  </g>
  <path
     id="path853"
     style="fill:#ffffff;fill-opacity:1;stroke-width:0.272727"
     d="m 11.506852,6.300096 a 4.5000001,4.5000001 0 0 1 4.49918,4.500616 4.5000001,4.5000001 0 0 1 -4.500411,4.499384 4.5000001,4.5000001 0 0 1 -4.4995895,-4.500205 4.5000001,4.5000001 0 0 1 4.5000005,-4.499795"
     inkscape:label="big_c"
     inkscape:connector-curvature="0" />
  <path
     id="path1334"
     d="m 35.091899,7.050931 -1.966235,3.404775 h 1.402615 v 17.402765 l -3.579993,-3.388515 c -0.231149,-0.288377 -0.393301,-0.665687 -0.402284,-1.053816 0,-1.570143 -3.97e-4,-2.502567 -9.76e-4,-2.845788 0.662828,-0.232646 1.141253,-0.857572 1.141253,-1.600489 0,-0.939842 -0.76265,-1.702559 -1.702831,-1.702559 -0.940589,0 -1.702967,0.76265 -1.702967,1.702559 0,0.742917 0.478154,1.367843 1.140438,1.600489 l -4.76e-4,2.812447 c 0,0.762241 0.418205,1.560957 0.90847,2.069322 -0.01456,-0.01388 -0.03007,-0.02831 2.83e-4,8.15e-4 0.01211,0.01075 3.797875,3.595101 3.797875,3.595101 0.230809,0.287762 0.39194,0.664868 0.401196,1.052727 v 1.968677 c -1.30057,0.260954 -2.28042,1.409421 -2.28042,2.787065 0,1.570687 1.273194,2.843881 2.843405,2.843881 1.570686,0 2.843946,-1.273194 2.843946,-2.843881 0,-1.377917 -0.980663,-2.526381 -2.282303,-2.787335 v -1.934186 c 0,-0.005 2.59e-4,-0.0099 0,-0.01498 v -4.278078 c 0.0098,-0.38711 0.171203,-0.763741 0.402285,-1.051231 0,0 3.785488,-3.583532 3.797733,-3.594625 0.03043,-0.02872 0.01454,-0.01444 2.59e-4,-2.58e-4 0.490197,-0.508364 0.908134,-1.307418 0.908134,-2.069798 l -3.97e-4,-2.710376 h 1.141588 v -3.405646 h -3.405338 v 3.405663 h 1.140097 c 0,0 -0.0012,0.713861 -0.0012,2.743583 -0.0089,0.388196 -0.170862,0.765917 -0.402012,1.054155 l -3.580815,3.389238 V 10.455706 h 1.404858 z"
     inkscape:connector-curvature="0"
     style="fill:#ffffff;stroke-width:0.0680452"
     inkscape:label="usb_logo" />
  <text
     xml:space="preserve"
     style="font-style:normal;font-variant:normal;font-weight:normal;font-stretch:normal;font-size:1.43163px;line-height:1.25;font-family:Play;-inkscape-font-specification:'Play, Normal';font-variant-ligatures:normal;font-variant-caps:normal;font-variant-numeric:normal;font-feature-settings:normal;text-align:start;letter-spacing:0px;word-spacing:0px;writing-mode:lr-tb;text-anchor:start;fill:#ffffff;fill-opacity:1;stroke:none;stroke-width:0.357908"
     x="47.959785"
     y="17.188828"
     id="text982"
     transform="scale(0.97866107,1.0218042)"
     inkscape:label="ns-usbloader"><tspan
       sodipodi:role="line"
       id="tspan980"
       x="47.959785"
       y="17.188828"
       style="font-style:normal;font-variant:normal;font-weight:normal;font-stretch:normal;font-size:13.3619px;font-family:Play;-inkscape-font-specification:'Play, Normal';font-variant-ligatures:normal;font-variant-caps:normal;font-variant-numeric:normal;font-feature-settings:normal;text-align:start;writing-mode:lr-tb;text-anchor:start;fill:#ffffff;stroke-width:0.357908">NS-USBloader</tspan></text>
  <path
     style="fill:#000000;fill-opacity:1;stroke-width:0.264583"
     d="m 21.967046,0 c -0.0065,-1.9994448e-6 -0.01188,0.0054 -0.01188,0.01188 v 44.976581 c 0,0.0065 0.0054,0.01188 0.01188,0.01188 h 2.000395 c 0.0065,0 0.01188,-0.0054 0.01188,-0.01188 V 0.011885 c 0,-0.0065 -0.0054,-0.011879999445 -0.01188,-0.011879999445 z"
     id="rect1136"
     inkscape:connector-curvature="0"
     sodipodi:nodetypes="csssssssc" />
  <g
     inkscape:label="CREATIVE_COMMONS_SHIELD"
     transform="matrix(0.1713381,0,0,0.17131892,77.526533,36.479842)"
     id="g287"
     inkscape:export-filename="/mnt/hgfs/Bov/Documents/Work/2007/cc/identity/srr buttons/big/by-sa.png"
     inkscape:export-xdpi="300.23013"
     inkscape:export-ydpi="300.23013">
    <path
       id="path3817_2_"
       nodetypes="ccccccc"
       d="m 182.23532,75.39014 114.06396,0.20312 c 1.59375,0 3.01758,-0.23682 3.01758,3.18018 l -0.13965,37.56689 H 179.3569 V 78.63379 c 0,-1.68457 0.16309,-3.24365 2.87842,-3.24365 z"
       style="fill:#aab2ab" />
    <g
       id="g5908_2_"
       transform="matrix(0.872921,0,0,0.872921,50.12536,143.2144)">
      <path
         id="path5906_2_"
         cx="296.35416"
         ry="22.939548"
         cy="264.3577"
         type="arc"
         rx="22.939548"
         d="m 187.20944,-55.6792 c 0.006,8.68024 -7.02786,15.72095 -15.7081,15.72708 -8.68021,0.005 -15.72205,-7.02786 -15.72708,-15.70804 0,-0.0067 0,-0.01233 0,-0.01904 -0.005,-8.68134 7.02783,-15.72205 15.70807,-15.72711 8.68134,-0.0056 15.72208,7.02789 15.72711,15.70807 0,0.0056 0,0.01233 0,0.01904 z"
         style="fill:#ffffff" />
      <g
         id="g5706_2_"
         transform="translate(-289.6157,99.0653)">
        <path
           id="path5708_2_"
           d="m 473.88455,-167.54724 c 3.48541,3.48596 5.22839,7.75391 5.22839,12.80273 0,5.04938 -1.7128,9.27148 -5.13834,12.66736 -3.63531,3.5766 -7.93179,5.36432 -12.88947,5.36432 -4.89777,0 -9.11987,-1.77261 -12.6651,-5.31955 -3.54584,-3.54581 -5.31845,-7.78299 -5.31845,-12.71213 0,-4.92859 1.77261,-9.19598 5.31845,-12.80273 3.4552,-3.48651 7.67725,-5.22894 12.6651,-5.22894 5.04829,0 9.31401,1.74243 12.79942,5.22894 z m -23.11798,2.34485 c -2.94675,2.97638 -4.41956,6.46289 -4.41956,10.46234 0,3.99835 1.45828,7.4552 4.37424,10.37067 2.91653,2.9165 6.38849,4.37476 10.41705,4.37476 4.02853,0 7.53018,-1.47281 10.50656,-4.41901 2.8259,-2.73584 4.23941,-6.17706 4.23941,-10.32642 0,-4.11804 -1.43646,-7.61292 -4.30768,-10.48474 -2.87064,-2.87067 -6.34988,-4.30652 -10.43829,-4.30652 -4.08837,0 -7.54638,1.44318 -10.37173,4.32892 z m 7.75449,8.70312 c -0.45032,-0.98163 -1.12433,-1.47223 -2.02325,-1.47223 -1.58914,0 -2.38342,1.06952 -2.38342,3.2085 0,2.13959 0.79428,3.20911 2.38342,3.20911 1.04938,0 1.79895,-0.5213 2.24866,-1.56512 l 2.20276,1.17303 c -1.04993,1.86548 -2.62506,2.79901 -4.72549,2.79901 -1.6199,0 -2.91763,-0.4967 -3.89206,-1.48956 -0.97607,-0.99341 -1.46274,-2.36273 -1.46274,-4.10797 0,-1.71558 0.50229,-3.07709 1.50748,-4.08563 1.00519,-1.00793 2.25705,-1.51251 3.75781,-1.51251 2.22012,0 3.80984,0.87488 4.77081,2.62286 z m 10.36334,0 c -0.45087,-0.98163 -1.11148,-1.47223 -1.98239,-1.47223 -1.62106,0 -2.43213,1.06952 -2.43213,3.2085 0,2.13959 0.81107,3.20911 2.43213,3.20911 1.05103,0 1.78717,-0.5213 2.20724,-1.56512 l 2.25201,1.17303 c -1.04825,1.86548 -2.62119,2.79901 -4.71768,2.79901 -1.61771,0 -2.91263,-0.4967 -3.88647,-1.48956 -0.97217,-0.99341 -1.45938,-2.36273 -1.45938,-4.10797 0,-1.71558 0.49448,-3.07709 1.48288,-4.08563 0.98782,-1.00793 2.24527,-1.51251 3.77347,-1.51251 2.21619,0 3.80368,0.87488 4.76132,2.62286 z" />
      </g>
    </g>
    <path
       d="M 297.29639,74.91064 H 181.06688 c -1.24658,0 -2.26074,1.01465 -2.26074,2.26123 v 39.49561 c 0,0.28174 0.22852,0.51074 0.51025,0.51074 h 119.73 c 0.28174,0 0.51074,-0.229 0.51074,-0.51074 v -39.4956 c 0,-1.24659 -1.01416,-2.26124 -2.26074,-2.26124 z m -116.22951,1.02149 h 116.22951 c 0.68359,0 1.23926,0.55615 1.23926,1.23975 0,0 0,15.91943 0,27.41846 H 215.4619 c -3.04492,5.50537 -8.91113,9.24365 -15.64355,9.24365 -6.73535,0 -12.6001,-3.73486 -15.64355,-9.24365 h -4.34814 c 0,-11.49902 0,-27.41846 0,-27.41846 -2e-5,-0.6836 0.55663,-1.23975 1.24022,-1.23975 z"
       id="path294" />
    <g
       enable-background="new    "
       id="g296">
      <path
         d="m 265.60986,112.8833 c 0.0801,0.15576 0.1875,0.28174 0.32129,0.37842 0.13379,0.0962 0.29004,0.16797 0.46973,0.21436 0.18066,0.0469 0.36719,0.0703 0.55957,0.0703 0.12988,0 0.26953,-0.0107 0.41895,-0.0327 0.14844,-0.0215 0.28809,-0.064 0.41895,-0.12598 0.12988,-0.062 0.23926,-0.14795 0.3252,-0.25684 0.0879,-0.10889 0.13086,-0.24707 0.13086,-0.41553 0,-0.18018 -0.0576,-0.32617 -0.17285,-0.43848 -0.11426,-0.1123 -0.26562,-0.20508 -0.45215,-0.28027 -0.18555,-0.0742 -0.39746,-0.13965 -0.63281,-0.1958 -0.23633,-0.0562 -0.47559,-0.11816 -0.71777,-0.18701 -0.24902,-0.062 -0.49121,-0.13818 -0.72754,-0.22852 -0.23535,-0.0898 -0.44727,-0.20703 -0.63379,-0.3501 -0.18652,-0.14307 -0.33691,-0.32178 -0.45215,-0.53662 -0.11426,-0.21484 -0.17188,-0.47461 -0.17188,-0.7793 0,-0.34277 0.0732,-0.63965 0.21875,-0.8916 0.14648,-0.25195 0.33789,-0.46191 0.57422,-0.63037 0.23535,-0.16797 0.50293,-0.29248 0.80176,-0.37354 0.29785,-0.0806 0.59668,-0.12109 0.89453,-0.12109 0.34863,0 0.68262,0.0391 1.00293,0.11719 0.31934,0.0776 0.60449,0.2041 0.85254,0.37842 0.24902,0.17432 0.44629,0.39697 0.59277,0.66797 0.14551,0.271 0.21875,0.59961 0.21875,0.98535 h -1.42188 c -0.0127,-0.19922 -0.0547,-0.36426 -0.125,-0.49463 -0.0713,-0.13086 -0.16602,-0.2334 -0.2832,-0.30859 -0.11816,-0.0742 -0.25293,-0.12744 -0.4043,-0.1582 -0.15234,-0.0312 -0.31738,-0.0469 -0.49707,-0.0469 -0.11719,0 -0.23535,0.0127 -0.35254,0.0371 -0.11816,0.0254 -0.22461,0.0688 -0.32031,0.13086 -0.0967,0.0625 -0.17578,0.14014 -0.2373,0.2334 -0.0615,0.0937 -0.0928,0.21191 -0.0928,0.35498 0,0.13086 0.0244,0.23682 0.0742,0.31738 0.0498,0.0811 0.14844,0.15576 0.29395,0.22412 0.14551,0.0684 0.34766,0.13721 0.60547,0.20557 0.25781,0.0684 0.59473,0.15576 1.01172,0.26123 0.12402,0.0249 0.2959,0.0703 0.5166,0.13574 0.2207,0.0654 0.43945,0.16943 0.65723,0.3125 0.21777,0.14355 0.40527,0.33496 0.56445,0.57422 0.1582,0.23975 0.2373,0.54639 0.2373,0.91992 0,0.30518 -0.0596,0.58838 -0.17773,0.84961 -0.11816,0.26172 -0.29395,0.4873 -0.52734,0.67676 -0.2334,0.19043 -0.52246,0.33789 -0.86719,0.44385 -0.3457,0.10596 -0.74609,0.15869 -1.19922,0.15869 -0.36719,0 -0.72363,-0.0454 -1.06934,-0.13574 -0.34473,-0.0903 -0.65039,-0.23242 -0.91504,-0.42578 -0.26367,-0.19336 -0.47363,-0.43994 -0.62988,-0.73877 -0.15527,-0.29932 -0.22949,-0.65381 -0.22363,-1.06494 h 1.42188 c -3e-5,0.22412 0.04,0.41406 0.12106,0.56933 z"
         id="path298"
         style="fill:#ffffff" />
      <path
         d="m 273.8667,107.8667 2.49316,6.66406 h -1.52246 l -0.50391,-1.48438 h -2.49316 l -0.52246,1.48438 h -1.47461 l 2.52051,-6.66406 z m 0.084,4.08594 -0.83984,-2.44336 h -0.0186 l -0.86914,2.44336 z"
         id="path300"
         style="fill:#ffffff" />
    </g>
    <g
       enable-background="new    "
       id="g302">
      <path
         d="m 239.17821,107.8667 c 0.31738,0 0.60742,0.0283 0.86914,0.084 0.26172,0.0561 0.48633,0.14795 0.67383,0.27539 0.18652,0.12744 0.33203,0.29688 0.43457,0.5083 0.10254,0.21142 0.1543,0.47266 0.1543,0.78369 0,0.33594 -0.0762,0.61523 -0.22949,0.83936 -0.15234,0.22412 -0.37891,0.40723 -0.67773,0.55029 0.41211,0.11816 0.71973,0.3252 0.92285,0.62109 0.20312,0.29589 0.30469,0.65234 0.30469,1.06934 0,0.33594 -0.0654,0.62695 -0.19629,0.87305 -0.13086,0.24561 -0.30762,0.44629 -0.52832,0.60205 -0.22168,0.15576 -0.47461,0.271 -0.75781,0.34521 -0.28418,0.0752 -0.5752,0.1123 -0.875,0.1123 h -3.23633 v -6.66406 h 3.14159 z m -0.1875,2.69531 c 0.26172,0 0.47656,-0.062 0.64551,-0.18604 0.16797,-0.12451 0.25195,-0.32568 0.25195,-0.60498 0,-0.15527 -0.0283,-0.28271 -0.084,-0.38184 -0.0566,-0.0996 -0.13086,-0.17676 -0.22461,-0.23291 -0.0937,-0.0557 -0.20117,-0.0947 -0.32227,-0.11621 -0.12207,-0.022 -0.24805,-0.0327 -0.37891,-0.0327 h -1.37305 v 1.55469 z m 0.0859,2.82813 c 0.14355,0 0.28027,-0.0137 0.41113,-0.042 0.13086,-0.0278 0.24707,-0.0747 0.34668,-0.13965 0.0996,-0.0654 0.17871,-0.1543 0.23828,-0.26611 0.0596,-0.11181 0.0889,-0.25488 0.0889,-0.4292 0,-0.3418 -0.0967,-0.58594 -0.29004,-0.73193 -0.19336,-0.14599 -0.44922,-0.21924 -0.7666,-0.21924 h -1.59961 v 1.82812 z"
         id="path304"
         style="fill:#ffffff" />
      <path
         d="m 241.88914,107.8667 h 1.64355 l 1.56055,2.63184 1.55078,-2.63184 h 1.63379 l -2.47363,4.10645 v 2.55762 h -1.46875 v -2.59473 z"
         id="path306"
         style="fill:#ffffff" />
    </g>
    <g
       id="g6316_1_"
       transform="matrix(0.624995,0,0,0.624995,391.2294,176.9332)">
      <path
         id="path6318_1_"
         cx="475.97119"
         ry="29.209877"
         cy="252.08646"
         type="arc"
         rx="29.209877"
         d="m -175.0083,-139.1153 c 0.006,9.4118 -7.61725,17.04779 -17.02982,17.05481 -9.41101,0.007 -17.047,-7.61725 -17.05481,-17.02979 0,-0.008 0,-0.0172 0,-0.025 -0.006,-9.41254 7.6188,-17.047 17.02982,-17.05481 9.41257,-0.007 17.04855,7.61804 17.05481,17.02985 0,0.009 0,0.0164 0,0.025 z"
         style="fill:#ffffff" />
      <g
         id="g6320_1_"
         transform="translate(-23.9521,-89.72962)">
        <path
           id="path6322_1_"
           d="m -168.2204,-68.05536 c -5.17194,0 -9.54852,1.80469 -13.13135,5.41333 -3.67661,3.73444 -5.51413,8.1532 -5.51413,13.25635 0,5.10315 1.83752,9.49152 5.51413,13.1626 3.67502,3.67194 8.05316,5.50787 13.13135,5.50787 5.14066,0 9.59537,-1.85156 13.36728,-5.55475 3.55005,-3.51562 5.3266,-7.88831 5.3266,-13.11572 0,-5.22662 -1.8078,-9.64697 -5.42191,-13.25635 -3.61407,-3.60864 -8.03756,-5.41333 -13.27197,-5.41333 z m 0.0469,3.36017 c 4.23752,0 7.836,1.49298 10.79697,4.48053 2.98907,2.9563 4.48441,6.56567 4.48441,10.82898 0,4.29382 -1.46252,7.85712 -4.39224,10.68915 -3.08438,3.04926 -6.71411,4.57349 -10.88913,4.57349 -4.17505,0 -7.7735,-1.5094 -10.79541,-4.52661 -3.02188,-3.01953 -4.53284,-6.59692 -4.53284,-10.73602 0,-4.13831 1.52658,-7.74847 4.57971,-10.82898 2.92815,-2.98756 6.51098,-4.48054 10.74853,-4.48054 z" />
        <path
           id="path6324_1_"
           d="m -176.49548,-52.02087 c 0.74377,-4.69769 4.05161,-7.20862 8.1954,-7.20862 5.96097,0 9.59225,4.32501 9.59225,10.09229 0,5.62738 -3.86411,9.99927 -9.686,9.99927 -4.00473,0 -7.58914,-2.46484 -8.24228,-7.30084 h 4.70319 c 0.14062,2.51099 1.77032,3.39459 4.09845,3.39459 2.65317,0 4.37817,-2.4649 4.37817,-6.23291 0,-3.95233 -1.49063,-6.04535 -4.28598,-6.04535 -2.04846,0 -3.8172,0.74457 -4.19064,3.30157 l 1.36874,-0.007 -3.70316,3.7016 -3.7016,-3.7016 z" />
      </g>
    </g>
    <g
       id="g313">
      <circle
         cx="242.56226"
         cy="90.224609"
         r="10.8064"
         id="circle315"
         style="fill:#ffffff" />
      <g
         id="g317">
        <path
           d="m 245.68994,87.09766 c 0,-0.4165 -0.33789,-0.75342 -0.75391,-0.75342 h -4.77246 c -0.41602,0 -0.75391,0.33691 -0.75391,0.75342 v 4.77295 h 1.33105 v 5.65234 h 3.61719 v -5.65234 h 1.33203 v -4.77295 z"
           id="path319" />
        <circle
           cx="242.5498"
           cy="84.083008"
           r="1.63232"
           id="circle321" />
      </g>
      <path
         clip-rule="evenodd"
         d="m 242.53467,78.31836 c -3.23145,0 -5.96826,1.12744 -8.20752,3.38379 -2.29785,2.33301 -3.44629,5.09521 -3.44629,8.28418 0,3.18897 1.14844,5.93213 3.44629,8.22705 2.29785,2.29443 5.03418,3.44189 8.20752,3.44189 3.21289,0 5.99805,-1.15674 8.35352,-3.47168 2.2207,-2.19678 3.33008,-4.92969 3.33008,-8.19727 0,-3.26758 -1.12891,-6.02881 -3.3877,-8.28418 -2.25879,-2.25634 -5.02442,-3.38378 -8.2959,-3.38378 z m 0.0293,2.09961 c 2.64844,0 4.89746,0.93359 6.74707,2.80078 1.87012,1.84717 2.80469,4.10352 2.80469,6.76758 0,2.68359 -0.91504,4.91113 -2.74609,6.68066 -1.92773,1.90576 -4.19629,2.8584 -6.80566,2.8584 -2.60937,0 -4.8584,-0.94287 -6.74658,-2.82959 -1.88965,-1.88623 -2.8335,-4.12256 -2.8335,-6.70947 0,-2.58643 0.9541,-4.84229 2.8623,-6.76758 1.83057,-1.86719 4.07031,-2.80078 6.71777,-2.80078 z"
         id="path323"
         style="fill-rule:evenodd" />
    </g>
  </g>
  <text
     inkscape:label="HeyMomLookAtMe"
     inkscape:transform-center-y="-0.1984375"
     inkscape:transform-center-x="-0.33072917"
     xml:space="preserve"
     style="font-style:normal;font-weight:normal;font-size:2.82222px;line-height:1.25;font-family:sans-serif;letter-spacing:0px;word-spacing:0px;fill:#000000;fill-opacity:1;stroke:none;stroke-width:0.264583"
     x="108.57767"
     y="48.318489"
     id="text921"><tspan
       sodipodi:role="line"
       x="108.57767"
       y="48.318489"
       style="font-style:normal;font-variant:normal;font-weight:bold;font-stretch:normal;font-size:2.82222px;font-family:'Nunito Sans';-inkscape-font-specification:'Nunito Sans Bold';stroke-width:0.264583"
       id="tspan923">Dmitry Isaenko</tspan></text>
</svg>
