<?xml version="1.0" encoding="UTF-8" standalone="no"?>
<svg
   width="132.50603mm"
   height="45.000351mm"
   viewBox="0 0 132.50603 45.000351"
   version="1.1"
   id="svg8"
   inkscape:version="1.2.1 (9c6d41e410, 2022-07-14)"
   sodipodi:docname="Application Logo.svg"
   xmlns:inkscape="http://www.inkscape.org/namespaces/inkscape"
   xmlns:sodipodi="http://sodipodi.sourceforge.net/DTD/sodipodi-0.dtd"
   xmlns="http://www.w3.org/2000/svg"
   xmlns:svg="http://www.w3.org/2000/svg"
   xmlns:rdf="http://www.w3.org/1999/02/22-rdf-syntax-ns#"
   xmlns:cc="http://creativecommons.org/ns#"
   xmlns:dc="http://purl.org/dc/elements/1.1/">
  <defs
     id="defs2" />
  <sodipodi:namedview
     id="base"
     pagecolor="#ffffff"
     bordercolor="#666666"
     borderopacity="1.0"
     inkscape:pageopacity="0.0"
     inkscape:pageshadow="2"
     inkscape:zoom="4.0000001"
     inkscape:cx="233.49999"
     inkscape:cy="127.875"
     inkscape:document-units="mm"
     inkscape:current-layer="flowRoot1022"
     showgrid="false"
     units="mm"
     inkscape:window-width="3754"
     inkscape:window-height="2127"
     inkscape:window-x="1166"
     inkscape:window-y="0"
     inkscape:window-maximized="1"
     fit-margin-top="0"
     fit-margin-left="0"
     fit-margin-right="0"
     fit-margin-bottom="0"
     inkscape:document-rotation="0"
     inkscape:showpageshadow="0"
     inkscape:pagecheckerboard="0"
     inkscape:deskcolor="#d1d1d1">
    <inkscape:grid
       type="xygrid"
       id="grid829"
       originx="-40.99399"
       originy="-37.999752" />
  </sodipodi:namedview>
  <metadata
     id="metadata5">
    <rdf:RDF>
      <cc:Work
         rdf:about="">
        <dc:format>image/svg+xml</dc:format>
        <dc:type
           rdf:resource="http://purl.org/dc/dcmitype/StillImage" />
      </cc:Work>
    </rdf:RDF>
  </metadata>
  <g
     id="g851"
     inkscape:label="mainGRP"
     transform="translate(-40.993968,-26.999903)">
    <path
       id="path847"
       transform="scale(0.26458333)"
       d="m 188.97656,102.04688 c -18.97637,0 -34.01562,18.70089 -34.01562,30.23632 -0.0219,42.2441 -0.0386,69.16374 0,109.60742 0,11.85827 15.03925,30.23633 34.01562,30.23633 h 48.94141 V 102.04688 Z"
       style="fill:#00c8fc;fill-opacity:1;stroke-width:1"
       inkscape:connector-curvature="0"
       inkscape:label="con" />
    <path
       id="rect823"
       transform="scale(0.26458333)"
       d="M 245.56836,102.04688 V 272.12695 H 655.74805 V 102.04688 Z"
       style="fill:#ec0000;fill-opacity:1;stroke-width:1"
       inkscape:connector-curvature="0"
       inkscape:label="big" />
  </g>
  <path
     id="path862"
     style="fill:#ffffff;fill-opacity:1;stroke-width:0.392613"
     d="m 11.547015,28.4105 a 2.1593723,2.1593723 0 0 0 -2.2000565,2.117691 2.1593723,2.1593723 0 0 0 2.1176905,2.200059 2.1593723,2.1593723 0 0 0 2.200555,-2.1167 2.1593723,2.1593723 0 0 0 -2.1167,-2.20105 l -0.04267,2.158874 z m 3.840427,-3.937182 a 2.1593723,2.1593723 0 0 0 -2.199561,2.117693 2.1593723,2.1593723 0 0 0 2.117195,2.200057 2.1593723,2.1593723 0 0 0 2.200555,-2.117195 2.1593723,2.1593723 0 0 0 -2.1167,-2.200555 l -0.04217,2.158876 z m -7.6809635,0 a 2.1593722,2.1593722 0 0 0 -2.200057,2.117693 2.1593722,2.1593722 0 0 0 2.117691,2.200057 2.1593722,2.1593722 0 0 0 2.200554,-2.117195 2.1593722,2.1593722 0 0 0 -2.117195,-2.200555 l -0.04218,2.158876 z m 3.8405365,-3.938173 a 2.1593723,2.1593723 0 0 0 -2.2000565,2.117691 2.1593723,2.1593723 0 0 0 2.1176905,2.200059 2.1593723,2.1593723 0 0 0 2.200555,-2.1167 2.1593723,2.1593723 0 0 0 -2.1167,-2.20105 l -0.04267,2.158874 z"
     inkscape:label="small_c"
     inkscape:connector-curvature="0" />
  <g
     inkscape:label="slogan"
     id="layer1"
     transform="translate(-40.993968,-213.9999)"
     inkscape:groupmode="layer">
    <g
       aria-label="everywhere"
       transform="matrix(0.26458333,0,0,0.26458333,-24.077084,181.70833)"
       style="font-style:normal;font-variant:normal;font-weight:300;font-stretch:normal;font-size:35.0667px;line-height:1.25;font-family:Raleway;-inkscape-font-specification:'Raleway, Light';font-variant-ligatures:normal;font-variant-caps:normal;font-variant-numeric:normal;font-feature-settings:normal;text-align:start;letter-spacing:0px;word-spacing:0px;writing-mode:lr-tb;text-anchor:start;fill:#000000;fill-opacity:1;stroke:none"
       id="flowRoot1022"
       inkscape:label="flowRoot1022"
       inkscape:groupmode="layer">
      <path
         id="path1096"
         d="m 482.38477,208.55274 v 3.22657 h 1.7539 v -3.22657 z m 60.89062,0 v 22.51368 c 0,1.00524 0.29251,1.81209 0.87695,2.41992 0.60782,0.58444 1.4029,0.87695 2.38477,0.87695 0.4208,0 0.92337,-0.0589 1.50781,-0.17578 0.58444,-0.0935 1.07523,-0.22307 1.47266,-0.38672 l -0.35156,-1.40234 c -0.30392,0.11691 -0.64354,0.21114 -1.01758,0.28125 -0.35067,0.0468 -0.65301,0.0703 -0.91016,0.0703 -0.67795,0 -1.21586,-0.19828 -1.61328,-0.5957 -0.37405,-0.39743 -0.56055,-0.93533 -0.56055,-1.61328 v -21.98829 z m 94.92383,0 v 25.59961 h 1.75195 v -5.78515 l 4.31445,-3.96289 7.11719,9.74804 h 1.92969 l -7.85547,-10.80078 7.60938,-7.39844 h -2.03321 l -11.08203,10.48438 v -17.88477 z m -166.73633,7.04883 c -0.91173,0 -1.77748,0.11779 -2.5957,0.35156 -0.79485,0.21041 -1.50747,0.53629 -2.13867,0.98047 -0.60782,0.44418 -1.08683,1.00564 -1.4375,1.6836 -0.35067,0.67796 -0.5254,1.47303 -0.5254,2.38476 0,0.72471 0.11583,1.32151 0.34961,1.78907 0.25716,0.46754 0.63212,0.8641 1.12305,1.1914 0.49093,0.32729 1.10933,0.60803 1.85742,0.8418 0.77147,0.23377 1.67256,0.46738 2.70118,0.70117 0.95849,0.23377 1.79872,0.45561 2.52343,0.66602 0.72471,0.21039 1.33328,0.45579 1.82422,0.73632 0.49093,0.25716 0.85411,0.58501 1.08789,0.98243 0.25716,0.37404 0.38477,0.84127 0.38477,1.40234 0,1.19227 -0.4908,2.12869 -1.47266,2.80664 -0.95849,0.65458 -2.23257,0.98047 -3.82226,0.98047 -1.2624,0 -2.42067,-0.21005 -3.47266,-0.63086 -1.052,-0.4208 -2.06891,-1.07454 -3.05078,-1.96289 l -0.875,1.19141 c 0.95848,0.93511 2.07945,1.63596 3.36523,2.10351 1.28578,0.46755 2.63054,0.70117 4.03321,0.70117 2.12738,0 3.82158,-0.47901 5.08398,-1.4375 1.28578,-0.98186 1.92969,-2.28933 1.92969,-3.92578 0,-0.79484 -0.1649,-1.45054 -0.49219,-1.96484 -0.30392,-0.51432 -0.75937,-0.95799 -1.36719,-1.33203 -0.58444,-0.37404 -1.32062,-0.69012 -2.20898,-0.94727 -0.88835,-0.25715 -1.90527,-0.5261 -3.05078,-0.80664 -0.84161,-0.2104 -1.56601,-0.3969 -2.17383,-0.56055 -0.60783,-0.18702 -1.11039,-0.39708 -1.50781,-0.63086 -0.37405,-0.23378 -0.65478,-0.5145 -0.8418,-0.84179 -0.16365,-0.32729 -0.24609,-0.76114 -0.24609,-1.29883 0,-0.65457 0.12955,-1.21409 0.38671,-1.68164 0.25716,-0.49093 0.60661,-0.88945 1.05079,-1.19336 0.44418,-0.30391 0.95852,-0.52575 1.54296,-0.66602 0.60782,-0.14027 1.25173,-0.21093 1.92969,-0.21093 1.09876,0 2.12745,0.17667 3.08594,0.52734 0.98187,0.35067 1.77695,0.87679 2.38476,1.57813 l 0.98047,-0.94727 c -0.60782,-0.74809 -1.45984,-1.35667 -2.55859,-1.82422 -1.09876,-0.49093 -2.36107,-0.73633 -3.78711,-0.73633 z m 26.80859,0 c -1.4728,0 -2.81755,0.41029 -4.0332,1.22852 -1.21565,0.81821 -2.19722,1.96275 -2.94531,3.43554 v -4.34765 h -1.64844 v 18.23437 h 1.75391 v -11.29101 c 0.23378,-0.8416 0.55967,-1.60135 0.98047,-2.2793 0.44417,-0.70133 0.94674,-1.29812 1.50781,-1.78906 0.56106,-0.51431 1.16964,-0.8991 1.82422,-1.15625 0.67796,-0.28053 1.39058,-0.42188 2.13867,-0.42188 1.47279,0 2.56038,0.54969 3.26172,1.64844 0.70133,1.07538 1.05273,2.78136 1.05273,5.11914 v 10.16992 h 1.75196 v -11.25586 c 0.23377,-0.8416 0.54984,-1.60133 0.94726,-2.27929 0.4208,-0.70133 0.91159,-1.29813 1.47266,-1.78907 0.56106,-0.51431 1.18141,-0.91087 1.85937,-1.1914 0.67796,-0.28053 1.39059,-0.42188 2.13867,-0.42188 1.4728,0 2.56039,0.54969 3.26172,1.64844 0.72472,1.09875 1.08594,2.80474 1.08594,5.11914 v 10.16992 h 1.75391 v -10.48437 c 0,-2.54818 -0.4319,-4.52508 -1.29688,-5.92774 -0.8416,-1.42604 -2.25703,-2.13867 -4.24414,-2.13867 -3.03911,0 -5.42239,1.64905 -7.15234,4.94532 -0.18703,-1.4728 -0.76027,-2.66639 -1.71875,-3.57813 -0.95849,-0.91173 -2.20902,-1.36719 -3.75196,-1.36719 z m 31.94727,0 c -1.40267,0 -2.72387,0.37496 -3.96289,1.12305 -1.21565,0.72471 -2.19722,1.67095 -2.94531,2.83984 v -3.64648 h -1.61328 v 25.70312 h 1.7539 v -11.39648 c 0.7481,1.19227 1.72967,2.20918 2.94531,3.05078 1.23902,0.81822 2.64268,1.22656 4.20899,1.22656 1.23903,0 2.37177,-0.24539 3.40039,-0.73633 1.02862,-0.51431 1.90615,-1.20338 2.63086,-2.06835 0.74809,-0.86498 1.31937,-1.87012 1.7168,-3.01563 0.39742,-1.14551 0.59765,-2.34893 0.59765,-3.61133 0,-1.19226 -0.22379,-2.3623 -0.66797,-3.50781 -0.4208,-1.14551 -1.01564,-2.15065 -1.78711,-3.01562 -0.77146,-0.88836 -1.6961,-1.60098 -2.77148,-2.13868 -1.07537,-0.53768 -2.24346,-0.80664 -3.50586,-0.80664 z m 82.88672,0 c -1.2624,0 -2.44422,0.25717 -3.54297,0.77149 -1.07538,0.49092 -2.00985,1.17017 -2.80469,2.03515 -0.79484,0.86498 -1.42698,1.87011 -1.89453,3.01563 -0.44418,1.14551 -0.66601,2.3607 -0.66601,3.64648 0,1.2624 0.22183,2.46582 0.66601,3.61133 0.44417,1.14551 1.06453,2.15065 1.85938,3.01563 0.79484,0.86497 1.7293,1.55404 2.80468,2.06835 1.09875,0.49094 2.29235,0.73633 3.57813,0.73633 1.26241,0 2.43048,-0.24539 3.50586,-0.73633 1.09876,-0.51431 2.045,-1.20338 2.83984,-2.06835 0.79484,-0.86498 1.4152,-1.87012 1.85938,-3.01563 0.46756,-1.14551 0.70117,-2.34893 0.70117,-3.61133 0,-1.28578 -0.23361,-2.50097 -0.70117,-3.64648 -0.44418,-1.14552 -1.07631,-2.15065 -1.89453,-3.01563 -0.79484,-0.86498 -1.72931,-1.54423 -2.80469,-2.03515 -1.07538,-0.51432 -2.24345,-0.77149 -3.50586,-0.77149 z m 49.30664,0 c -0.91174,0 -1.77749,0.11779 -2.5957,0.35156 -0.79485,0.21041 -1.50748,0.53629 -2.13868,0.98047 -0.60782,0.44418 -1.08683,1.00564 -1.4375,1.6836 -0.35066,0.67796 -0.52734,1.47303 -0.52734,2.38476 0,0.72471 0.11778,1.32151 0.35156,1.78907 0.25716,0.46754 0.63016,0.8641 1.1211,1.1914 0.49092,0.32729 1.11128,0.60803 1.85937,0.8418 0.77147,0.23377 1.6706,0.46738 2.69922,0.70117 0.95849,0.23377 1.80068,0.45561 2.52539,0.66602 0.72471,0.21039 1.33329,0.45579 1.82422,0.73632 0.49094,0.25716 0.85216,0.58501 1.08594,0.98243 0.25716,0.37404 0.38672,0.84127 0.38672,1.40234 0,1.19227 -0.49079,2.12869 -1.47266,2.80664 -0.95848,0.65458 -2.23257,0.98047 -3.82227,0.98047 -1.2624,0 -2.42065,-0.21005 -3.47265,-0.63086 -1.052,-0.4208 -2.06892,-1.07454 -3.05078,-1.96289 l -0.87696,1.19141 c 0.95849,0.93511 2.08141,1.63596 3.36719,2.10351 1.28577,0.46755 2.63054,0.70117 4.0332,0.70117 2.12738,0 3.82158,-0.47901 5.08399,-1.4375 1.28577,-0.98186 1.92969,-2.28933 1.92969,-3.92578 0,-0.79484 -0.1649,-1.45054 -0.49219,-1.96484 -0.30391,-0.51432 -0.75937,-0.95799 -1.36719,-1.33203 -0.58445,-0.37404 -1.32063,-0.69012 -2.20898,-0.94727 -0.88836,-0.25715 -1.90528,-0.5261 -3.05078,-0.80664 -0.8416,-0.2104 -1.56601,-0.3969 -2.17383,-0.56055 -0.60782,-0.18702 -1.1104,-0.39708 -1.50781,-0.63086 -0.37405,-0.23378 -0.65478,-0.5145 -0.8418,-0.84179 -0.16365,-0.32729 -0.2461,-0.76114 -0.2461,-1.29883 0,-0.65457 0.12957,-1.21409 0.38672,-1.68164 0.25716,-0.49093 0.60661,-0.88945 1.05078,-1.19336 0.44418,-0.30391 0.95853,-0.52575 1.54297,-0.66602 0.60782,-0.14027 1.25173,-0.21093 1.92969,-0.21093 1.09875,0 2.12744,0.17667 3.08594,0.52734 0.98186,0.35067 1.77694,0.87679 2.38476,1.57813 l 0.98047,-0.94727 c -0.60782,-0.74809 -1.45984,-1.35667 -2.55859,-1.82422 -1.09876,-0.49093 -2.36107,-0.73633 -3.78711,-0.73633 z m -28.0293,0.2461 c -0.18702,0 -0.39708,0.0118 -0.63086,0.0351 -1.19226,0.11689 -2.31518,0.58412 -3.36718,1.40235 -1.02863,0.79484 -1.85709,1.83532 -2.48829,3.12109 v -4.48828 h -1.68359 v 18.23437 h 1.75391 v -11.39648 c 0.49093,-1.61307 1.34295,-2.87538 2.55859,-3.78711 1.23903,-0.93507 2.67801,-1.42586 4.31445,-1.47266 v -1.64843 z m -151.99804,0.0703 v 18.23437 h 1.7539 v -18.23437 z m 67.30859,0 8.13672,18.23437 c -0.56107,1.33254 -1.0067,2.38479 -1.33399,3.15625 -0.32728,0.77147 -0.59623,1.35648 -0.80664,1.75391 -0.2104,0.39742 -0.37334,0.65459 -0.49023,0.77148 -0.11689,0.14029 -0.24451,0.24435 -0.38477,0.31446 -0.18702,0.0935 -0.38725,0.15238 -0.59765,0.17578 -0.18703,0.0234 -0.39709,0.0352 -0.63086,0.0352 -0.23378,0 -0.4085,-0.0118 -0.52539,-0.0352 v 1.61328 c 0.11689,0.0234 0.22094,0.0352 0.31445,0.0352 h 0.31641 c 0.98186,0 1.75338,-0.18846 2.31445,-0.5625 0.58444,-0.35067 1.00456,-0.85324 1.26172,-1.50782 l 9.99414,-23.98437 h -1.7168 l -6.76953,16.51562 -7.25781,-16.51562 z m 26.09766,0 7.88867,18.23437 h 1.47265 l 4.10352,-9.64257 4.10352,9.64257 h 1.47265 l 7.88867,-18.23437 h -1.75195 l -6.94336,16.30469 -3.82227,-8.97657 3.08594,-7.29297 h -1.54297 l -2.49023,6.03126 -2.52539,-6.03126 h -1.50781 l 3.08593,7.29297 -3.82226,8.97657 -6.97852,-16.30469 z m -45.92383,1.26172 c 1.00524,0 1.95344,0.22183 2.84179,0.66601 0.88836,0.4208 1.65988,0.99404 2.31446,1.71875 0.67796,0.72471 1.20408,1.56691 1.57812,2.52539 0.37405,0.93511 0.56055,1.92847 0.56055,2.98047 0,0.98187 -0.16295,1.95167 -0.49023,2.91016 -0.3273,0.93511 -0.79648,1.7773 -1.4043,2.52539 -0.60782,0.72471 -1.34401,1.30777 -2.20899,1.75195 -0.86497,0.44418 -1.823,0.66797 -2.875,0.66797 -0.72471,0 -1.42556,-0.11779 -2.10351,-0.35156 -0.67796,-0.25715 -1.31008,-0.60856 -1.89453,-1.05274 -0.58444,-0.44418 -1.11057,-0.95852 -1.57813,-1.54296 -0.46755,-0.58446 -0.85233,-1.21463 -1.15625,-1.89258 v -5.9961 c 0.0701,-0.65457 0.32731,-1.27492 0.77149,-1.85937 0.44417,-0.58444 0.98207,-1.09879 1.61328,-1.54297 0.6312,-0.46755 1.29671,-0.82878 1.99804,-1.08594 0.72471,-0.28053 1.40201,-0.42187 2.03321,-0.42187 z m 83.23828,0 c 0.98187,0 1.89277,0.21006 2.73437,0.63086 0.86498,0.4208 1.62472,0.99403 2.2793,1.71875 0.65457,0.70133 1.16892,1.53174 1.54297,2.49023 0.37405,0.93511 0.56055,1.94025 0.56055,3.01563 0,1.09875 -0.1865,2.12745 -0.56055,3.08593 -0.37405,0.93512 -0.8884,1.76552 -1.54297,2.49024 -0.65458,0.7247 -1.41432,1.296 -2.2793,1.71679 -0.86498,0.39742 -1.78767,0.59766 -2.76953,0.59766 -0.98186,0 -1.9065,-0.20024 -2.77148,-0.59766 -0.86498,-0.42079 -1.62472,-0.9803 -2.2793,-1.68164 -0.63119,-0.70132 -1.13376,-1.51996 -1.50781,-2.45507 -0.37405,-0.95849 -0.56055,-1.97541 -0.56055,-3.05079 0,-1.07538 0.1865,-2.09229 0.56055,-3.05078 0.39742,-0.98186 0.91177,-1.83584 1.54297,-2.56054 0.65458,-0.72472 1.41431,-1.29795 2.27929,-1.71875 0.86498,-0.4208 1.78963,-0.63086 2.77149,-0.63086 z m -21.5957,22.91406 v 25.59961 h 1.7539 v -11.29102 c 0.23378,-0.79484 0.58518,-1.53102 1.05274,-2.20898 0.46755,-0.70133 1.0035,-1.30991 1.61132,-1.82422 0.6312,-0.51431 1.29867,-0.91087 2,-1.19141 0.72472,-0.28053 1.4609,-0.42187 2.20899,-0.42187 3.01573,0 4.52344,2.25566 4.52344,6.76758 v 10.16992 h 1.7539 v -10.48438 c 0,-1.23902 -0.11779,-2.35016 -0.35156,-3.33203 -0.2104,-1.00524 -0.55985,-1.85921 -1.05078,-2.56054 -0.46756,-0.70134 -1.06436,-1.23729 -1.78906,-1.61133 -0.72472,-0.37405 -1.59046,-0.5625 -2.59571,-0.5625 -1.51955,0 -2.94481,0.42207 -4.27734,1.26367 -1.30915,0.8416 -2.33785,1.97434 -3.08594,3.40039 v -11.71289 z m -109.88282,7.04883 c -1.2624,0 -2.44421,0.24539 -3.54297,0.73633 -1.07538,0.49093 -2.00984,1.17017 -2.80468,2.03515 -0.79485,0.8416 -1.42503,1.83496 -1.89258,2.98047 -0.44418,1.12213 -0.66602,2.32556 -0.66602,3.61133 0,1.30915 0.22184,2.53613 0.66602,3.68164 0.46755,1.14551 1.09773,2.16243 1.89258,3.05078 0.81822,0.86498 1.77624,1.55405 2.875,2.06836 1.09876,0.49093 2.29235,0.73828 3.57812,0.73828 0.8416,0 1.65828,-0.11779 2.45313,-0.35156 0.79484,-0.2104 1.5212,-0.51468 2.17578,-0.91211 0.67796,-0.39742 1.26102,-0.86466 1.75195,-1.40234 0.51431,-0.56107 0.90104,-1.16964 1.1582,-1.82422 l -1.54296,-0.41992 c -0.23378,0.51431 -0.56163,0.99332 -0.98243,1.4375 -0.39742,0.4208 -0.86465,0.78397 -1.40234,1.08789 -0.51431,0.30391 -1.07577,0.5493 -1.68359,0.73632 -0.60782,0.16365 -1.22623,0.24415 -1.85743,0.24414 -0.95849,0 -1.85957,-0.1865 -2.70117,-0.56054 -0.8416,-0.37405 -1.58956,-0.8884 -2.24414,-1.54297 -0.6312,-0.65458 -1.15732,-1.4261 -1.57812,-2.31445 -0.4208,-0.91174 -0.6662,-1.89332 -0.73633,-2.94532 h 15.99023 c 0.0234,-0.0467 0.0352,-0.15276 0.0352,-0.3164 v -0.45508 c 0,-1.2624 -0.22184,-2.45404 -0.66602,-3.57617 -0.44418,-1.14551 -1.06452,-2.13887 -1.85937,-2.98047 -0.79484,-0.86498 -1.74109,-1.54422 -2.83985,-2.03516 -1.09875,-0.51431 -2.29039,-0.77148 -3.57617,-0.77148 z m 37.875,0 c -1.2624,0 -2.44421,0.24539 -3.54297,0.73633 -1.07538,0.49093 -2.00984,1.17017 -2.80468,2.03515 -0.79485,0.8416 -1.42503,1.83496 -1.89258,2.98047 -0.44418,1.12213 -0.66797,2.32556 -0.66797,3.61133 0,1.30915 0.22379,2.53613 0.66797,3.68164 0.46755,1.14551 1.09773,2.16243 1.89258,3.05078 0.81822,0.86498 1.77624,1.55405 2.875,2.06836 1.09876,0.49093 2.29235,0.73828 3.57812,0.73828 0.8416,0 1.65828,-0.11779 2.45313,-0.35156 0.79484,-0.2104 1.5212,-0.51468 2.17578,-0.91211 0.67796,-0.39742 1.26102,-0.86466 1.75195,-1.40234 0.51431,-0.56107 0.90104,-1.16964 1.1582,-1.82422 l -1.54296,-0.41992 c -0.23378,0.51431 -0.56163,0.99332 -0.98243,1.4375 -0.39742,0.4208 -0.86465,0.78397 -1.40234,1.08789 -0.51431,0.30391 -1.07577,0.5493 -1.68359,0.73632 -0.60782,0.16365 -1.22818,0.24415 -1.85938,0.24414 -0.95849,0 -1.85762,-0.1865 -2.69922,-0.56054 -0.8416,-0.37405 -1.58956,-0.8884 -2.24414,-1.54297 -0.6312,-0.65458 -1.15732,-1.4261 -1.57812,-2.31445 -0.4208,-0.91174 -0.6662,-1.89332 -0.73633,-2.94532 h 15.99023 c 0.0234,-0.0467 0.0352,-0.15276 0.0352,-0.3164 v -0.45508 c 0,-1.2624 -0.22184,-2.45404 -0.66602,-3.57617 -0.44418,-1.14551 -1.06452,-2.13887 -1.85937,-2.98047 -0.79484,-0.86498 -1.74109,-1.54422 -2.83985,-2.03516 -1.09875,-0.51431 -2.29039,-0.77148 -3.57617,-0.77148 z m 99.85743,0 c -1.2624,0 -2.44226,0.24539 -3.54102,0.73633 -1.07537,0.49093 -2.01179,1.17017 -2.80664,2.03515 -0.79485,0.8416 -1.42503,1.83496 -1.89258,2.98047 -0.44418,1.12213 -0.66601,2.32556 -0.66602,3.61133 10e-6,1.30915 0.22184,2.53613 0.66602,3.68164 0.46755,1.14551 1.09773,2.16243 1.89258,3.05078 0.81822,0.86498 1.77624,1.55405 2.875,2.06836 1.09875,0.49093 2.29234,0.73828 3.57812,0.73828 0.8416,0 1.66024,-0.11779 2.45508,-0.35156 0.79485,-0.2104 1.51925,-0.51468 2.17383,-0.91211 0.67795,-0.39742 1.26102,-0.86466 1.75195,-1.40234 0.51432,-0.56107 0.90105,-1.16964 1.15821,-1.82422 l -1.54297,-0.41992 c -0.23378,0.51431 -0.56162,0.99332 -0.98242,1.4375 -0.39742,0.4208 -0.86465,0.78397 -1.40235,1.08789 -0.5143,0.30391 -1.07577,0.5493 -1.68359,0.73632 -0.60782,0.16365 -1.22622,0.24414 -1.85742,0.24414 -0.95849,10e-6 -1.85958,-0.1865 -2.70118,-0.56054 -0.8416,-0.37405 -1.58956,-0.8884 -2.24414,-1.54297 -0.6312,-0.65458 -1.15732,-1.4261 -1.57812,-2.31445 -0.4208,-0.91174 -0.6662,-1.89332 -0.73633,-2.94532 h 15.99023 c 0.0234,-0.0467 0.0352,-0.15276 0.0352,-0.3164 v -0.45508 c 0,-1.2624 -0.22183,-2.45404 -0.66601,-3.57617 -0.44418,-1.14551 -1.06259,-2.13887 -1.85743,-2.98047 -0.79484,-0.86498 -1.74304,-1.54422 -2.84179,-2.03516 -1.09876,-0.51431 -2.2904,-0.77148 -3.57617,-0.77148 z m 31.57421,0 c -1.2624,0 -2.44421,0.24539 -3.54297,0.73633 -1.07537,0.49093 -2.00984,1.17017 -2.80468,2.03515 -0.79485,0.8416 -1.42698,1.83496 -1.89453,2.98047 -0.44418,1.12213 -0.66602,2.32556 -0.66602,3.61133 0,1.30915 0.22184,2.53613 0.66602,3.68164 0.46755,1.14551 1.09968,2.16243 1.89453,3.05078 0.81822,0.86498 1.77624,1.55405 2.875,2.06836 1.09875,0.49093 2.29234,0.73828 3.57812,0.73828 0.8416,0 1.65829,-0.11779 2.45313,-0.35156 0.79484,-0.2104 1.51925,-0.51468 2.17383,-0.91211 0.67795,-0.39742 1.26297,-0.86466 1.7539,-1.40234 0.51432,-0.56107 0.90105,-1.16964 1.1582,-1.82422 l -1.54296,-0.41992 c -0.23378,0.51431 -0.56163,0.99332 -0.98243,1.4375 -0.39742,0.4208 -0.86465,0.78397 -1.40234,1.08789 -0.51431,0.30391 -1.07577,0.5493 -1.68359,0.73632 -0.60782,0.16365 -1.22818,0.24414 -1.85938,0.24414 -0.95848,10e-6 -1.85762,-0.1865 -2.69922,-0.56054 -0.8416,-0.37405 -1.58956,-0.8884 -2.24414,-1.54297 -0.6312,-0.65458 -1.15732,-1.4261 -1.57812,-2.31445 -0.4208,-0.91174 -0.6662,-1.89332 -0.73633,-2.94532 h 15.99023 c 0.0234,-0.0467 0.0352,-0.15276 0.0352,-0.3164 v -0.45508 c 0,-1.2624 -0.22184,-2.45404 -0.66602,-3.57617 -0.44418,-1.14551 -1.06453,-2.13887 -1.85937,-2.98047 -0.79485,-0.86498 -1.74109,-1.54422 -2.83984,-2.03516 -1.09876,-0.51431 -2.2904,-0.77148 -3.57618,-0.77148 z m -110.42773,0.24609 c -0.18703,0 -0.39709,0.0118 -0.63086,0.0352 -1.19227,0.11688 -2.31519,0.58412 -3.36719,1.40234 -1.02862,0.79485 -1.85903,1.83532 -2.49023,3.1211 v -4.48829 h -1.68164 v 18.23438 h 1.75195 v -11.39648 c 0.49093,-1.61307 1.34491,-2.87538 2.56055,-3.78711 1.23902,-0.93514 2.67606,-1.42593 4.3125,-1.47266 v -1.64844 z m 99.85742,0 c -0.18702,0 -0.39708,0.0118 -0.63086,0.0352 -1.19226,0.11688 -2.31519,0.58412 -3.36719,1.40234 -1.02862,0.79485 -1.85708,1.83532 -2.48828,3.1211 v -4.48829 h -1.68359 v 18.23438 h 1.75391 v -11.39648 c 0.49093,-1.61307 1.34294,-2.87538 2.55859,-3.78711 1.23902,-0.93514 2.67801,-1.42593 4.31445,-1.47266 v -1.64844 z m -148.38086,0.0703 7.60938,18.23438 h 1.82422 l 7.60937,-18.23438 h -1.71875 l -6.76758,16.48047 -6.73242,-16.48047 z m 50.19922,0 8.13477,18.23438 c -0.56107,1.33253 -1.00474,2.38478 -1.33203,3.15625 -0.32729,0.77147 -0.59625,1.35649 -0.80665,1.75391 -0.2104,0.39742 -0.37334,0.65459 -0.49023,0.77148 -0.11689,0.14027 -0.24645,0.24432 -0.38672,0.31445 -0.18703,0.0935 -0.3853,0.15238 -0.5957,0.17578 -0.18702,0.0234 -0.39708,0.0352 -0.63086,0.0352 -0.23377,0 -0.4085,-0.0118 -0.52539,-0.0352 v 1.61329 c 0.11689,0.0234 0.22094,0.0351 0.31445,0.0351 h 0.31641 c 0.98186,0 1.75338,-0.18651 2.31445,-0.56055 0.58445,-0.35066 1.00457,-0.85518 1.26172,-1.50976 L 559.75,247.45899 h -1.71875 l -6.76758,16.51563 -7.25781,-16.51563 z m 18.97266,0 7.89062,18.23438 h 1.47266 l 4.10351,-9.64258 4.10157,9.64258 h 1.47461 l 7.88867,-18.23438 h -1.75391 l -6.94141,16.30664 -3.82226,-8.97851 3.08594,-7.29297 h -1.54297 l -2.49024,6.03125 -2.52539,-6.03125 h -1.50781 l 3.08594,7.29297 -3.82227,8.97851 -6.97851,-16.30664 z m -79.49219,1.1211 c 0.95849,0 1.85762,0.18846 2.69922,0.5625 0.8416,0.35066 1.57778,0.85323 2.20898,1.50781 0.65458,0.6312 1.18071,1.39094 1.57813,2.2793 0.4208,0.88836 0.66619,1.86994 0.73633,2.94531 h -14.37696 c 0.0701,-1.052 0.29197,-2.0218 0.66602,-2.91016 0.39742,-0.91173 0.91177,-1.68325 1.54297,-2.31445 0.65458,-0.65458 1.40254,-1.15715 2.24414,-1.50781 0.8416,-0.37404 1.74268,-0.5625 2.70117,-0.5625 z m 37.875,0 c 0.95849,0 1.85762,0.18846 2.69922,0.5625 0.8416,0.35066 1.57778,0.85323 2.20898,1.50781 0.65458,0.6312 1.18071,1.39094 1.57813,2.2793 0.4208,0.88836 0.66619,1.86994 0.73633,2.94531 h -14.37696 c 0.0701,-1.052 0.29197,-2.0218 0.66602,-2.91016 0.39742,-0.91173 0.91177,-1.68325 1.54297,-2.31445 0.65458,-0.65458 1.40254,-1.15715 2.24414,-1.50781 0.8416,-0.37404 1.74268,-0.5625 2.70117,-0.5625 z m 99.85742,0 c 0.95849,0 1.85762,0.18846 2.69922,0.5625 0.8416,0.35066 1.57778,0.85323 2.20898,1.50781 0.65458,0.6312 1.1807,1.39094 1.57813,2.2793 0.4208,0.88836 0.66619,1.86994 0.73633,2.94531 h -14.37696 c 0.0701,-1.052 0.29197,-2.0218 0.66602,-2.91016 0.39742,-0.91173 0.91177,-1.68325 1.54297,-2.31445 0.65458,-0.65458 1.40254,-1.15715 2.24414,-1.50781 0.8416,-0.37404 1.74268,-0.5625 2.70117,-0.5625 z m 31.57422,0 c 0.95849,0 1.85762,0.18846 2.69922,0.5625 0.8416,0.35066 1.57778,0.85323 2.20898,1.50781 0.65458,0.6312 1.1807,1.39094 1.57813,2.2793 0.4208,0.88836 0.66619,1.86994 0.73633,2.94531 h -14.37696 c 0.0701,-1.052 0.29197,-2.0218 0.66602,-2.91016 0.39742,-0.91173 0.91177,-1.68325 1.54297,-2.31445 0.65458,-0.65458 1.40254,-1.15715 2.24414,-1.50781 0.8416,-0.37404 1.74268,-0.5625 2.70117,-0.5625 z"
         inkscape:connector-curvature="0"
         style="fill:#ffffff" />
    </g>
  </g>
  <path
     id="path853"
     style="fill:#ffffff;fill-opacity:1;stroke-width:0.272727"
     d="m 11.506852,6.300096 a 4.5000001,4.5000001 0 0 1 4.49918,4.500616 4.5000001,4.5000001 0 0 1 -4.500411,4.499384 4.5000001,4.5000001 0 0 1 -4.4995895,-4.500205 4.5000001,4.5000001 0 0 1 4.5000005,-4.499795"
     inkscape:label="big_c"
     inkscape:connector-curvature="0" />
  <path
     id="path1334"
     d="m 35.091899,7.050931 -1.966235,3.404775 h 1.402615 v 17.402765 l -3.579993,-3.388515 c -0.231149,-0.288377 -0.393301,-0.665687 -0.402284,-1.053816 0,-1.570143 -3.97e-4,-2.502567 -9.76e-4,-2.845788 0.662828,-0.232646 1.141253,-0.857572 1.141253,-1.600489 0,-0.939842 -0.76265,-1.702559 -1.702831,-1.702559 -0.940589,0 -1.702967,0.76265 -1.702967,1.702559 0,0.742917 0.478154,1.367843 1.140438,1.600489 l -4.76e-4,2.812447 c 0,0.762241 0.418205,1.560957 0.90847,2.069322 -0.01456,-0.01388 -0.03007,-0.02831 2.83e-4,8.15e-4 0.01211,0.01075 3.797875,3.595101 3.797875,3.595101 0.230809,0.287762 0.39194,0.664868 0.401196,1.052727 v 1.968677 c -1.30057,0.260954 -2.28042,1.409421 -2.28042,2.787065 0,1.570687 1.273194,2.843881 2.843405,2.843881 1.570686,0 2.843946,-1.273194 2.843946,-2.843881 0,-1.377917 -0.980663,-2.526381 -2.282303,-2.787335 v -1.934186 c 0,-0.005 2.59e-4,-0.0099 0,-0.01498 v -4.278078 c 0.0098,-0.38711 0.171203,-0.763741 0.402285,-1.051231 0,0 3.785488,-3.583532 3.797733,-3.594625 0.03043,-0.02872 0.01454,-0.01444 2.59e-4,-2.58e-4 0.490197,-0.508364 0.908134,-1.307418 0.908134,-2.069798 l -3.97e-4,-2.710376 h 1.141588 v -3.405646 h -3.405338 v 3.405663 h 1.140097 c 0,0 -0.0012,0.713861 -0.0012,2.743583 -0.0089,0.388196 -0.170862,0.765917 -0.402012,1.054155 l -3.580815,3.389238 V 10.455706 h 1.404858 z"
     inkscape:connector-curvature="0"
     style="fill:#ffffff;stroke-width:0.0680452"
     inkscape:label="usb_logo" />
  <g
     aria-label="NS-USBloader"
     transform="scale(0.97866107,1.0218042)"
     id="text982"
     style="font-size:1.43163px;line-height:1.25;font-family:Play;-inkscape-font-specification:'Play, Normal';letter-spacing:0px;word-spacing:0px;fill:#ffffff;stroke-width:0.357908"
     inkscape:label="ns-usbloader">
    <path
       d="M 56.49804,17.188828 H 54.934697 L 50.217947,9.9065918 V 17.188828 H 49.082185 V 8.5169542 h 1.563342 l 4.716751,7.1619788 V 8.5169542 h 1.135762 z"
       style="font-size:13.3619px"
       id="path880" />
    <path
       d="m 64.488451,14.249209 v 0.62801 q 0,1.389637 -0.788353,1.924113 -0.788352,0.521115 -2.458589,0.521115 -1.068952,0 -2.645656,-0.213791 v -1.082314 q 1.576704,0.334048 2.725827,0.334048 0.921971,0 1.403,-0.200429 0.49439,-0.21379 0.49439,-0.8418 v -1.122399 q 0,-0.547838 -0.320686,-0.77499 -0.307323,-0.240515 -1.122399,-0.240515 H 60.76048 q -1.309466,0 -1.83058,-0.521114 -0.507752,-0.534476 -0.507752,-1.563342 v -0.694819 q 0,-1.0288662 0.721542,-1.5232565 0.734905,-0.4943903 2.685742,-0.4943903 0.935333,0 2.231438,0.1469809 v 0.9754187 q -1.483171,-0.2271523 -2.324971,-0.2271523 -1.242657,0 -1.656876,0.2538761 -0.400857,0.2405142 -0.400857,0.8284374 v 0.988781 q 0,0.454305 0.320686,0.668095 0.320686,0.200429 1.135762,0.200429 h 1.042228 q 1.349552,0 1.83058,0.49439 0.481029,0.481028 0.481029,1.536618 z"
       style="font-size:13.3619px"
       id="path882" />
    <path
       d="m 69.472442,13.848352 h -3.714608 v -0.962056 h 3.714608 z"
       style="font-size:13.3619px"
       id="path884" />
    <path
       d="m 77.903799,8.5169542 v 6.4537978 q 0,2.351695 -3.393923,2.351695 -0.681456,0 -1.215932,-0.09353 -0.534476,-0.08017 -1.055591,-0.307323 -0.521114,-0.240515 -0.815076,-0.734905 -0.293961,-0.49439 -0.293961,-1.215933 V 8.5169542 h 1.242656 V 14.95739 q 0,0.855162 0.574562,1.175847 0.574562,0.320686 1.590066,0.320686 1.015505,0 1.563343,-0.320686 0.561199,-0.320685 0.561199,-1.175847 V 8.5169542 Z"
       style="font-size:13.3619px"
       id="path886" />
    <path
       d="m 85.907587,14.249209 v 0.62801 q 0,1.389637 -0.788352,1.924113 -0.788353,0.521115 -2.45859,0.521115 -1.068952,0 -2.645656,-0.213791 v -1.082314 q 1.576704,0.334048 2.725827,0.334048 0.921971,0 1.403,-0.200429 0.49439,-0.21379 0.49439,-0.8418 v -1.122399 q 0,-0.547838 -0.320686,-0.77499 -0.307323,-0.240515 -1.122399,-0.240515 h -1.015505 q -1.309466,0 -1.83058,-0.521114 -0.507752,-0.534476 -0.507752,-1.563342 v -0.694819 q 0,-1.0288662 0.721542,-1.5232565 0.734905,-0.4943903 2.685742,-0.4943903 0.935333,0 2.231438,0.1469809 v 0.9754187 q -1.483171,-0.2271523 -2.324971,-0.2271523 -1.242657,0 -1.656875,0.2538761 -0.400857,0.2405142 -0.400857,0.8284374 v 0.988781 q 0,0.454305 0.320685,0.668095 0.320686,0.200429 1.135762,0.200429 h 1.042228 q 1.349552,0 1.83058,0.49439 0.481029,0.481028 0.481029,1.536618 z"
       style="font-size:13.3619px"
       id="path888" />
    <path
       d="m 94.031625,14.008695 v 1.456447 q 0,0.948695 -0.721543,1.33619 -0.721542,0.387496 -2.351694,0.387496 H 87.764894 V 8.5169542 h 3.099961 q 1.122399,0 1.750409,0.2271523 0.641371,0.2271523 0.828437,0.5611998 0.200429,0.3340475 0.200429,0.8551617 v 1.162485 q 0,0.534476 -0.307324,0.815076 -0.293962,0.2806 -0.881885,0.414219 v 0.05345 q 0.694819,0.120257 1.135761,0.481028 0.440943,0.360771 0.440943,0.921971 z m -1.603428,-2.725827 v -1.015505 q 0,-0.4943902 -0.360771,-0.6948187 -0.360772,-0.2004285 -1.202571,-0.2004285 h -1.803857 v 2.9396182 h 1.843942 q 0.828438,0 1.175848,-0.240514 0.347409,-0.253876 0.347409,-0.788352 z m 0.307324,4.128827 v -1.309466 q 0,-0.34741 -0.146981,-0.547838 -0.133619,-0.213791 -0.440943,-0.293962 -0.293962,-0.09353 -0.534476,-0.106895 -0.227152,-0.02672 -0.654733,-0.02672 h -1.89739 v 3.16677 h 1.89739 q 0.975419,0 1.376276,-0.200428 0.400857,-0.200429 0.400857,-0.681457 z"
       style="font-size:13.3619px"
       id="path890" />
    <path
       d="M 97.07815,17.188828 H 95.875579 V 7.8354973 h 1.202571 z"
       style="font-size:13.3619px"
       id="path892" />
    <path
       d="m 104.8815,12.899658 v 2.244799 q 0,0.601285 -0.14698,1.015504 -0.14698,0.414219 -0.37413,0.641371 -0.22715,0.227153 -0.65474,0.34741 -0.41421,0.120257 -0.80171,0.146981 -0.37413,0.02672 -1.00214,0.02672 -0.80172,0 -1.25602,-0.05345 -0.44094,-0.05345 -0.895248,-0.253876 -0.440942,-0.213791 -0.641371,-0.668095 -0.187067,-0.454305 -0.187067,-1.202571 v -2.244799 q 0,-0.641372 0.146981,-1.082314 0.160343,-0.440943 0.374134,-0.681457 0.227152,-0.240515 0.654731,-0.360772 0.42758,-0.133619 0.78835,-0.160342 0.37414,-0.02672 1.01551,-0.02672 0.64137,0 1.00214,0.02672 0.37413,0.02672 0.80171,0.160342 0.42759,0.120257 0.64138,0.360772 0.22715,0.240514 0.37413,0.681457 0.16034,0.440942 0.16034,1.082314 z m -1.22929,2.418503 v -2.618932 q 0,-0.895247 -0.36077,-1.109038 -0.36078,-0.21379 -1.38964,-0.21379 -1.02887,0 -1.38964,0.21379 -0.36077,0.213791 -0.36077,1.109038 v 2.618932 q 0,0.427581 0.0935,0.681457 0.0935,0.253876 0.34741,0.374134 0.25388,0.106895 0.52112,0.133619 0.26723,0.02672 0.78835,0.02672 0.52111,0 0.78835,-0.02672 0.26724,-0.02672 0.52111,-0.133619 0.25388,-0.120258 0.34741,-0.374134 0.0935,-0.253876 0.0935,-0.681457 z"
       style="font-size:13.3619px"
       id="path894" />
    <path
       d="m 111.85643,17.188828 h -1.16249 V 16.57418 q -0.14698,0.748267 -1.95084,0.748267 -1.33619,0 -1.8573,-0.400857 -0.50775,-0.414219 -0.50775,-1.656876 0,-1.082314 0.48103,-1.483171 0.48103,-0.414219 1.8573,-0.414219 h 1.93748 v -1.028866 q 0,-0.534476 -0.33405,-0.721543 -0.32069,-0.187067 -1.2293,-0.187067 -0.98878,0 -2.21807,0.160343 v -0.881885 q 1.32283,-0.120257 2.39178,-0.120257 1.63015,0 2.11118,0.400857 0.48103,0.387495 0.48103,1.630152 z m -1.20257,-1.309467 V 14.11559 h -1.85731 q -0.82844,0 -1.04223,0.213791 -0.20042,0.21379 -0.20042,0.975419 0,0.681456 0.21379,0.962056 0.22715,0.267238 0.93533,0.267238 h 0.24051 q 0.34741,0 0.57456,-0.01336 0.24052,-0.01336 0.53448,-0.06681 0.29396,-0.06681 0.44094,-0.200429 0.16035,-0.14698 0.16035,-0.374134 z"
       style="font-size:13.3619px"
       id="path896" />
    <path
       d="m 119.59297,17.188828 h -1.17585 v -0.761629 q 0,0.34741 -0.58792,0.62801 -0.57456,0.267238 -1.5767,0.267238 -1.403,0 -1.97757,-0.440943 -0.57456,-0.440943 -0.57456,-1.61679 v -2.846085 q 0,-0.975419 0.60129,-1.402999 0.60128,-0.427581 2.01765,-0.427581 0.76162,0 1.40299,0.200428 0.65474,0.200429 0.6681,0.62801 h 0.0267 q -0.0267,-1.095676 -0.0267,-1.6435142 V 7.8354973 h 1.20257 z m -1.20257,-1.696962 v -3.193494 q 0,-0.868524 -1.77713,-0.868524 -1.06895,0 -1.403,0.160343 -0.32069,0.160343 -0.32069,0.708181 v 3.193494 q 0,0.547838 0.36077,0.77499 0.37414,0.227153 1.25602,0.227153 0.98878,0 1.42973,-0.227153 0.4543,-0.227152 0.4543,-0.77499 z"
       style="font-size:13.3619px"
       id="path898" />
    <path
       d="m 126.88855,14.222486 h -4.34261 v 0.975418 q 0,0.681457 0.48103,0.975419 0.48102,0.2806 1.42972,0.2806 0.92197,0 2.17799,-0.320686 v 0.921972 q -1.20257,0.267238 -2.33833,0.267238 -2.96635,0 -2.96635,-1.977562 v -2.552123 q 0,-1.189209 0.68146,-1.696961 0.68146,-0.507752 2.17799,-0.507752 1.403,0 2.04437,0.49439 0.65473,0.481028 0.65473,1.710323 z m -1.20257,-0.788352 v -1.015505 q 0,-0.587924 -0.36077,-0.801714 -0.36077,-0.227152 -1.20257,-0.227152 -0.80171,0 -1.18921,0.21379 -0.38749,0.213791 -0.38749,0.815076 v 1.015505 z"
       style="font-size:13.3619px"
       id="path900" />
    <path
       d="m 132.20659,11.616915 h -0.6681 q -0.82844,0 -1.22929,0.21379 -0.3875,0.213791 -0.3875,0.801715 v 4.556408 h -1.20257 v -6.46716 h 1.13576 v 1.05559 q 0,-0.467667 0.57456,-0.828438 0.58793,-0.360771 1.18921,-0.360771 h 0.58793 z"
       style="font-size:13.3619px"
       id="path902" />
  </g>
  <path
     style="fill:#000000;fill-opacity:1;stroke-width:0.264583"
     d="m 21.967046,0 c -0.0065,-1.9994448e-6 -0.01188,0.0054 -0.01188,0.01188 v 44.976581 c 0,0.0065 0.0054,0.01188 0.01188,0.01188 h 2.000395 c 0.0065,0 0.01188,-0.0054 0.01188,-0.01188 V 0.011885 c 0,-0.0065 -0.0054,-0.011879999445 -0.01188,-0.011879999445 z"
     id="rect1136"
     inkscape:connector-curvature="0"
     sodipodi:nodetypes="csssssssc" />
</svg>
